G75*
%MOIN*%
%OFA0B0*%
%FSLAX25Y25*%
%IPPOS*%
%LPD*%
%AMOC8*
5,1,8,0,0,1.08239X$1,22.5*
%
%ADD10OC8,0.07900*%
%ADD11R,0.07900X0.07900*%
%ADD12C,0.07900*%
%ADD13C,0.06996*%
D10*
X0023000Y0009000D03*
X0023000Y0019000D03*
X0033000Y0019000D03*
X0033000Y0009000D03*
X0043000Y0009000D03*
X0043000Y0019000D03*
X0053000Y0019000D03*
X0053000Y0009000D03*
X0063000Y0009000D03*
X0063000Y0019000D03*
X0063000Y0189000D03*
X0063000Y0199000D03*
X0053000Y0199000D03*
X0053000Y0189000D03*
X0043000Y0189000D03*
X0043000Y0199000D03*
X0033000Y0199000D03*
X0033000Y0189000D03*
X0023000Y0189000D03*
X0023000Y0199000D03*
D11*
X0015500Y0061500D03*
D12*
X0015500Y0071500D03*
X0015500Y0081500D03*
X0015500Y0091500D03*
X0015500Y0101500D03*
X0015500Y0111500D03*
X0015500Y0121500D03*
X0015500Y0131500D03*
D13*
X0024909Y0126500D03*
X0036720Y0126500D03*
X0036720Y0164000D03*
X0024909Y0164000D03*
X0024909Y0086500D03*
X0036720Y0086500D03*
X0036720Y0046500D03*
X0024909Y0046500D03*
X0070185Y0046500D03*
X0070185Y0086500D03*
X0070185Y0126500D03*
X0070185Y0164000D03*
M02*
