G75*
%MOIN*%
%OFA0B0*%
%FSLAX25Y25*%
%IPPOS*%
%LPD*%
%AMOC8*
5,1,8,0,0,1.08239X$1,22.5*
%
%ADD10OC8,0.07400*%
%ADD11R,0.07400X0.07400*%
%ADD12C,0.07400*%
%ADD13C,0.06496*%
%ADD14C,0.01000*%
D10*
X0023000Y0009000D03*
X0023000Y0019000D03*
X0033000Y0019000D03*
X0033000Y0009000D03*
X0043000Y0009000D03*
X0043000Y0019000D03*
X0053000Y0019000D03*
X0053000Y0009000D03*
X0063000Y0009000D03*
X0063000Y0019000D03*
X0063000Y0189000D03*
X0063000Y0199000D03*
X0053000Y0199000D03*
X0053000Y0189000D03*
X0043000Y0189000D03*
X0043000Y0199000D03*
X0033000Y0199000D03*
X0033000Y0189000D03*
X0023000Y0189000D03*
X0023000Y0199000D03*
D11*
X0015500Y0061500D03*
D12*
X0015500Y0071500D03*
X0015500Y0081500D03*
X0015500Y0091500D03*
X0015500Y0101500D03*
X0015500Y0111500D03*
X0015500Y0121500D03*
X0015500Y0131500D03*
D13*
X0024909Y0126500D03*
X0036720Y0126500D03*
X0036720Y0164000D03*
X0024909Y0164000D03*
X0024909Y0086500D03*
X0036720Y0086500D03*
X0036720Y0046500D03*
X0024909Y0046500D03*
X0070185Y0046500D03*
X0070185Y0086500D03*
X0070185Y0126500D03*
X0070185Y0164000D03*
D14*
X0005068Y0008140D02*
X0005599Y0006503D01*
X0006611Y0005111D01*
X0008003Y0004099D01*
X0009640Y0003568D01*
X0010500Y0003500D01*
X0068000Y0003500D01*
X0068860Y0003568D01*
X0070497Y0004099D01*
X0071889Y0005111D01*
X0072901Y0006503D01*
X0073432Y0008140D01*
X0073500Y0009000D01*
X0073500Y0043666D01*
X0072648Y0042814D01*
X0071050Y0042152D01*
X0069320Y0042152D01*
X0067722Y0042814D01*
X0066499Y0044037D01*
X0065837Y0045635D01*
X0065837Y0047365D01*
X0066499Y0048963D01*
X0067722Y0050186D01*
X0069320Y0050848D01*
X0071050Y0050848D01*
X0072648Y0050186D01*
X0073500Y0049334D01*
X0073500Y0083666D01*
X0072648Y0082814D01*
X0071050Y0082152D01*
X0069320Y0082152D01*
X0067722Y0082814D01*
X0066499Y0084037D01*
X0065837Y0085635D01*
X0065837Y0087365D01*
X0066499Y0088963D01*
X0067722Y0090186D01*
X0069320Y0090848D01*
X0071050Y0090848D01*
X0072648Y0090186D01*
X0073500Y0089334D01*
X0073500Y0123666D01*
X0072648Y0122814D01*
X0071050Y0122152D01*
X0069320Y0122152D01*
X0067722Y0122814D01*
X0066499Y0124037D01*
X0065837Y0125635D01*
X0065837Y0127365D01*
X0066499Y0128963D01*
X0067722Y0130186D01*
X0069320Y0130848D01*
X0071050Y0130848D01*
X0072648Y0130186D01*
X0073500Y0129334D01*
X0073500Y0161166D01*
X0072648Y0160314D01*
X0071050Y0159652D01*
X0069320Y0159652D01*
X0067722Y0160314D01*
X0066499Y0161537D01*
X0065837Y0163135D01*
X0065837Y0164865D01*
X0066499Y0166463D01*
X0067722Y0167686D01*
X0069320Y0168348D01*
X0071050Y0168348D01*
X0072648Y0167686D01*
X0073500Y0166834D01*
X0073500Y0199000D01*
X0073433Y0199854D01*
X0072905Y0201479D01*
X0071901Y0202861D01*
X0070518Y0203865D01*
X0068894Y0204393D01*
X0068039Y0204461D01*
X0010461Y0204461D01*
X0009606Y0204393D01*
X0007982Y0203865D01*
X0006599Y0202861D01*
X0005595Y0201479D01*
X0005067Y0199854D01*
X0005000Y0199000D01*
X0005000Y0009000D01*
X0005068Y0008140D01*
X0005117Y0007987D02*
X0018200Y0007987D01*
X0018200Y0007012D02*
X0021012Y0004200D01*
X0024988Y0004200D01*
X0027800Y0007012D01*
X0027800Y0010988D01*
X0024988Y0013800D01*
X0021012Y0013800D01*
X0018200Y0010988D01*
X0018200Y0007012D01*
X0018224Y0006988D02*
X0005442Y0006988D01*
X0005973Y0005990D02*
X0019222Y0005990D01*
X0020221Y0004991D02*
X0006776Y0004991D01*
X0008332Y0003993D02*
X0070168Y0003993D01*
X0071724Y0004991D02*
X0065779Y0004991D01*
X0064988Y0004200D02*
X0067800Y0007012D01*
X0067800Y0010988D01*
X0064988Y0013800D01*
X0061012Y0013800D01*
X0058200Y0010988D01*
X0058200Y0007012D01*
X0061012Y0004200D01*
X0064988Y0004200D01*
X0066778Y0005990D02*
X0072527Y0005990D01*
X0073058Y0006988D02*
X0067776Y0006988D01*
X0067800Y0007987D02*
X0073383Y0007987D01*
X0073499Y0008985D02*
X0067800Y0008985D01*
X0067800Y0009984D02*
X0073500Y0009984D01*
X0073500Y0010982D02*
X0067800Y0010982D01*
X0066808Y0011981D02*
X0073500Y0011981D01*
X0073500Y0012979D02*
X0065809Y0012979D01*
X0065154Y0013800D02*
X0068200Y0016846D01*
X0068200Y0018500D01*
X0063500Y0018500D01*
X0063500Y0019500D01*
X0068200Y0019500D01*
X0068200Y0021154D01*
X0065154Y0024200D01*
X0063500Y0024200D01*
X0063500Y0019500D01*
X0062500Y0019500D01*
X0062500Y0024200D01*
X0060846Y0024200D01*
X0058000Y0021354D01*
X0055154Y0024200D01*
X0053500Y0024200D01*
X0053500Y0019500D01*
X0052500Y0019500D01*
X0052500Y0024200D01*
X0050846Y0024200D01*
X0048000Y0021354D01*
X0045154Y0024200D01*
X0043500Y0024200D01*
X0043500Y0019500D01*
X0042500Y0019500D01*
X0042500Y0024200D01*
X0040846Y0024200D01*
X0038000Y0021354D01*
X0035154Y0024200D01*
X0033500Y0024200D01*
X0033500Y0019500D01*
X0032500Y0019500D01*
X0032500Y0024200D01*
X0030846Y0024200D01*
X0028000Y0021354D01*
X0025154Y0024200D01*
X0023500Y0024200D01*
X0023500Y0019500D01*
X0022500Y0019500D01*
X0022500Y0024200D01*
X0020846Y0024200D01*
X0017800Y0021154D01*
X0017800Y0019500D01*
X0022500Y0019500D01*
X0022500Y0018500D01*
X0023500Y0018500D01*
X0023500Y0019500D01*
X0032500Y0019500D01*
X0032500Y0018500D01*
X0033500Y0018500D01*
X0033500Y0019500D01*
X0042500Y0019500D01*
X0042500Y0018500D01*
X0043500Y0018500D01*
X0043500Y0019500D01*
X0052500Y0019500D01*
X0052500Y0018500D01*
X0053500Y0018500D01*
X0053500Y0019500D01*
X0062500Y0019500D01*
X0062500Y0018500D01*
X0063500Y0018500D01*
X0063500Y0013800D01*
X0065154Y0013800D01*
X0065332Y0013978D02*
X0073500Y0013978D01*
X0073500Y0014976D02*
X0066330Y0014976D01*
X0067329Y0015975D02*
X0073500Y0015975D01*
X0073500Y0016973D02*
X0068200Y0016973D01*
X0068200Y0017972D02*
X0073500Y0017972D01*
X0073500Y0018970D02*
X0063500Y0018970D01*
X0063500Y0017972D02*
X0062500Y0017972D01*
X0062500Y0018500D02*
X0062500Y0013800D01*
X0060846Y0013800D01*
X0058000Y0016646D01*
X0055154Y0013800D01*
X0053500Y0013800D01*
X0053500Y0018500D01*
X0057800Y0018500D01*
X0062500Y0018500D01*
X0062500Y0018970D02*
X0053500Y0018970D01*
X0053500Y0017972D02*
X0052500Y0017972D01*
X0052500Y0018500D02*
X0052500Y0013800D01*
X0050846Y0013800D01*
X0048000Y0016646D01*
X0045154Y0013800D01*
X0043500Y0013800D01*
X0043500Y0018500D01*
X0047800Y0018500D01*
X0052500Y0018500D01*
X0052500Y0018970D02*
X0043500Y0018970D01*
X0043500Y0017972D02*
X0042500Y0017972D01*
X0042500Y0018500D02*
X0042500Y0013800D01*
X0040846Y0013800D01*
X0038000Y0016646D01*
X0035154Y0013800D01*
X0033500Y0013800D01*
X0033500Y0018500D01*
X0037800Y0018500D01*
X0042500Y0018500D01*
X0042500Y0018970D02*
X0033500Y0018970D01*
X0033500Y0017972D02*
X0032500Y0017972D01*
X0032500Y0018500D02*
X0032500Y0013800D01*
X0030846Y0013800D01*
X0028000Y0016646D01*
X0025154Y0013800D01*
X0023500Y0013800D01*
X0023500Y0018500D01*
X0028200Y0018500D01*
X0032500Y0018500D01*
X0032500Y0018970D02*
X0023500Y0018970D01*
X0023500Y0017972D02*
X0022500Y0017972D01*
X0022500Y0018500D02*
X0022500Y0013800D01*
X0020846Y0013800D01*
X0017800Y0016846D01*
X0017800Y0018500D01*
X0022500Y0018500D01*
X0022500Y0018970D02*
X0005000Y0018970D01*
X0005000Y0017972D02*
X0017800Y0017972D01*
X0017800Y0016973D02*
X0005000Y0016973D01*
X0005000Y0015975D02*
X0018671Y0015975D01*
X0019670Y0014976D02*
X0005000Y0014976D01*
X0005000Y0013978D02*
X0020668Y0013978D01*
X0020191Y0012979D02*
X0005000Y0012979D01*
X0005000Y0011981D02*
X0019192Y0011981D01*
X0018200Y0010982D02*
X0005000Y0010982D01*
X0005000Y0009984D02*
X0018200Y0009984D01*
X0018200Y0008985D02*
X0005001Y0008985D01*
X0005000Y0019969D02*
X0017800Y0019969D01*
X0017800Y0020967D02*
X0005000Y0020967D01*
X0005000Y0021966D02*
X0018612Y0021966D01*
X0019610Y0022964D02*
X0005000Y0022964D01*
X0005000Y0023963D02*
X0020609Y0023963D01*
X0022500Y0023963D02*
X0023500Y0023963D01*
X0023500Y0022964D02*
X0022500Y0022964D01*
X0022500Y0021966D02*
X0023500Y0021966D01*
X0023500Y0020967D02*
X0022500Y0020967D01*
X0022500Y0019969D02*
X0023500Y0019969D01*
X0023500Y0016973D02*
X0022500Y0016973D01*
X0022500Y0015975D02*
X0023500Y0015975D01*
X0023500Y0014976D02*
X0022500Y0014976D01*
X0022500Y0013978D02*
X0023500Y0013978D01*
X0025332Y0013978D02*
X0030668Y0013978D01*
X0031012Y0013800D02*
X0028200Y0010988D01*
X0028200Y0007012D01*
X0031012Y0004200D01*
X0034988Y0004200D01*
X0037800Y0007012D01*
X0037800Y0010988D01*
X0034988Y0013800D01*
X0031012Y0013800D01*
X0030191Y0012979D02*
X0025809Y0012979D01*
X0026808Y0011981D02*
X0029192Y0011981D01*
X0028200Y0010982D02*
X0027800Y0010982D01*
X0027800Y0009984D02*
X0028200Y0009984D01*
X0028200Y0008985D02*
X0027800Y0008985D01*
X0027800Y0007987D02*
X0028200Y0007987D01*
X0028224Y0006988D02*
X0027776Y0006988D01*
X0026778Y0005990D02*
X0029222Y0005990D01*
X0030221Y0004991D02*
X0025779Y0004991D01*
X0026330Y0014976D02*
X0029670Y0014976D01*
X0028671Y0015975D02*
X0027329Y0015975D01*
X0027388Y0021966D02*
X0028612Y0021966D01*
X0029610Y0022964D02*
X0026390Y0022964D01*
X0025391Y0023963D02*
X0030609Y0023963D01*
X0032500Y0023963D02*
X0033500Y0023963D01*
X0033500Y0022964D02*
X0032500Y0022964D01*
X0032500Y0021966D02*
X0033500Y0021966D01*
X0033500Y0020967D02*
X0032500Y0020967D01*
X0032500Y0019969D02*
X0033500Y0019969D01*
X0033500Y0016973D02*
X0032500Y0016973D01*
X0032500Y0015975D02*
X0033500Y0015975D01*
X0033500Y0014976D02*
X0032500Y0014976D01*
X0032500Y0013978D02*
X0033500Y0013978D01*
X0035332Y0013978D02*
X0040668Y0013978D01*
X0041012Y0013800D02*
X0038200Y0010988D01*
X0038200Y0007012D01*
X0041012Y0004200D01*
X0044988Y0004200D01*
X0047800Y0007012D01*
X0047800Y0010988D01*
X0044988Y0013800D01*
X0041012Y0013800D01*
X0040191Y0012979D02*
X0035809Y0012979D01*
X0036808Y0011981D02*
X0039192Y0011981D01*
X0038200Y0010982D02*
X0037800Y0010982D01*
X0037800Y0009984D02*
X0038200Y0009984D01*
X0038200Y0008985D02*
X0037800Y0008985D01*
X0037800Y0007987D02*
X0038200Y0007987D01*
X0038224Y0006988D02*
X0037776Y0006988D01*
X0036778Y0005990D02*
X0039222Y0005990D01*
X0040221Y0004991D02*
X0035779Y0004991D01*
X0036330Y0014976D02*
X0039670Y0014976D01*
X0038671Y0015975D02*
X0037329Y0015975D01*
X0037388Y0021966D02*
X0038612Y0021966D01*
X0039610Y0022964D02*
X0036390Y0022964D01*
X0035391Y0023963D02*
X0040609Y0023963D01*
X0042500Y0023963D02*
X0043500Y0023963D01*
X0043500Y0022964D02*
X0042500Y0022964D01*
X0042500Y0021966D02*
X0043500Y0021966D01*
X0043500Y0020967D02*
X0042500Y0020967D01*
X0042500Y0019969D02*
X0043500Y0019969D01*
X0043500Y0016973D02*
X0042500Y0016973D01*
X0042500Y0015975D02*
X0043500Y0015975D01*
X0043500Y0014976D02*
X0042500Y0014976D01*
X0042500Y0013978D02*
X0043500Y0013978D01*
X0045332Y0013978D02*
X0050668Y0013978D01*
X0051012Y0013800D02*
X0048200Y0010988D01*
X0048200Y0007012D01*
X0051012Y0004200D01*
X0054988Y0004200D01*
X0057800Y0007012D01*
X0057800Y0010988D01*
X0054988Y0013800D01*
X0051012Y0013800D01*
X0050191Y0012979D02*
X0045809Y0012979D01*
X0046808Y0011981D02*
X0049192Y0011981D01*
X0048200Y0010982D02*
X0047800Y0010982D01*
X0047800Y0009984D02*
X0048200Y0009984D01*
X0048200Y0008985D02*
X0047800Y0008985D01*
X0047800Y0007987D02*
X0048200Y0007987D01*
X0048224Y0006988D02*
X0047776Y0006988D01*
X0046778Y0005990D02*
X0049222Y0005990D01*
X0050221Y0004991D02*
X0045779Y0004991D01*
X0046330Y0014976D02*
X0049670Y0014976D01*
X0048671Y0015975D02*
X0047329Y0015975D01*
X0047388Y0021966D02*
X0048612Y0021966D01*
X0049610Y0022964D02*
X0046390Y0022964D01*
X0045391Y0023963D02*
X0050609Y0023963D01*
X0052500Y0023963D02*
X0053500Y0023963D01*
X0053500Y0022964D02*
X0052500Y0022964D01*
X0052500Y0021966D02*
X0053500Y0021966D01*
X0053500Y0020967D02*
X0052500Y0020967D01*
X0052500Y0019969D02*
X0053500Y0019969D01*
X0053500Y0016973D02*
X0052500Y0016973D01*
X0052500Y0015975D02*
X0053500Y0015975D01*
X0053500Y0014976D02*
X0052500Y0014976D01*
X0052500Y0013978D02*
X0053500Y0013978D01*
X0055332Y0013978D02*
X0060668Y0013978D01*
X0060191Y0012979D02*
X0055809Y0012979D01*
X0056808Y0011981D02*
X0059192Y0011981D01*
X0058200Y0010982D02*
X0057800Y0010982D01*
X0057800Y0009984D02*
X0058200Y0009984D01*
X0058200Y0008985D02*
X0057800Y0008985D01*
X0057800Y0007987D02*
X0058200Y0007987D01*
X0058224Y0006988D02*
X0057776Y0006988D01*
X0056778Y0005990D02*
X0059222Y0005990D01*
X0060221Y0004991D02*
X0055779Y0004991D01*
X0056330Y0014976D02*
X0059670Y0014976D01*
X0058671Y0015975D02*
X0057329Y0015975D01*
X0057388Y0021966D02*
X0058612Y0021966D01*
X0059610Y0022964D02*
X0056390Y0022964D01*
X0055391Y0023963D02*
X0060609Y0023963D01*
X0062500Y0023963D02*
X0063500Y0023963D01*
X0063500Y0022964D02*
X0062500Y0022964D01*
X0062500Y0021966D02*
X0063500Y0021966D01*
X0063500Y0020967D02*
X0062500Y0020967D01*
X0062500Y0019969D02*
X0063500Y0019969D01*
X0063500Y0016973D02*
X0062500Y0016973D01*
X0062500Y0015975D02*
X0063500Y0015975D01*
X0063500Y0014976D02*
X0062500Y0014976D01*
X0062500Y0013978D02*
X0063500Y0013978D01*
X0067388Y0021966D02*
X0073500Y0021966D01*
X0073500Y0022964D02*
X0066390Y0022964D01*
X0065391Y0023963D02*
X0073500Y0023963D01*
X0073500Y0024961D02*
X0005000Y0024961D01*
X0005000Y0025960D02*
X0073500Y0025960D01*
X0073500Y0026958D02*
X0005000Y0026958D01*
X0005000Y0027957D02*
X0073500Y0027957D01*
X0073500Y0028955D02*
X0005000Y0028955D01*
X0005000Y0029954D02*
X0073500Y0029954D01*
X0073500Y0030952D02*
X0005000Y0030952D01*
X0005000Y0031951D02*
X0073500Y0031951D01*
X0073500Y0032949D02*
X0005000Y0032949D01*
X0005000Y0033948D02*
X0073500Y0033948D01*
X0073500Y0034946D02*
X0005000Y0034946D01*
X0005000Y0035945D02*
X0073500Y0035945D01*
X0073500Y0036943D02*
X0005000Y0036943D01*
X0005000Y0037942D02*
X0073500Y0037942D01*
X0073500Y0038940D02*
X0005000Y0038940D01*
X0005000Y0039939D02*
X0073500Y0039939D01*
X0073500Y0040937D02*
X0005000Y0040937D01*
X0005000Y0041936D02*
X0023591Y0041936D01*
X0023798Y0041869D02*
X0023087Y0042100D01*
X0022421Y0042439D01*
X0021816Y0042878D01*
X0021288Y0043407D01*
X0020849Y0044011D01*
X0020509Y0044677D01*
X0020278Y0045388D01*
X0020181Y0046000D01*
X0024409Y0046000D01*
X0024409Y0047000D01*
X0020181Y0047000D01*
X0020278Y0047612D01*
X0020509Y0048323D01*
X0020849Y0048989D01*
X0021288Y0049593D01*
X0021816Y0050122D01*
X0022421Y0050561D01*
X0023087Y0050900D01*
X0023798Y0051131D01*
X0024409Y0051228D01*
X0024409Y0047000D01*
X0025409Y0047000D01*
X0025409Y0051228D01*
X0026021Y0051131D01*
X0026732Y0050900D01*
X0027398Y0050561D01*
X0028003Y0050122D01*
X0028531Y0049593D01*
X0028970Y0048989D01*
X0029310Y0048323D01*
X0029541Y0047612D01*
X0029637Y0047000D01*
X0025409Y0047000D01*
X0025409Y0046000D01*
X0025409Y0041772D01*
X0026021Y0041869D01*
X0026732Y0042100D01*
X0027398Y0042439D01*
X0028003Y0042878D01*
X0028531Y0043407D01*
X0028970Y0044011D01*
X0029310Y0044677D01*
X0029541Y0045388D01*
X0029637Y0046000D01*
X0025409Y0046000D01*
X0024409Y0046000D01*
X0024409Y0041772D01*
X0023798Y0041869D01*
X0024409Y0041936D02*
X0025409Y0041936D01*
X0026228Y0041936D02*
X0073500Y0041936D01*
X0073500Y0042934D02*
X0072769Y0042934D01*
X0072910Y0049924D02*
X0073500Y0049924D01*
X0073500Y0050923D02*
X0026663Y0050923D01*
X0028200Y0049924D02*
X0033996Y0049924D01*
X0034258Y0050186D02*
X0033034Y0048963D01*
X0032372Y0047365D01*
X0032372Y0045635D01*
X0033034Y0044037D01*
X0034258Y0042814D01*
X0035856Y0042152D01*
X0037585Y0042152D01*
X0039183Y0042814D01*
X0040407Y0044037D01*
X0041068Y0045635D01*
X0041068Y0047365D01*
X0040407Y0048963D01*
X0039183Y0050186D01*
X0037585Y0050848D01*
X0035856Y0050848D01*
X0034258Y0050186D01*
X0033019Y0048926D02*
X0029002Y0048926D01*
X0029438Y0047927D02*
X0032605Y0047927D01*
X0032372Y0046929D02*
X0025409Y0046929D01*
X0025409Y0047927D02*
X0024409Y0047927D01*
X0024409Y0046929D02*
X0005000Y0046929D01*
X0005000Y0047927D02*
X0020381Y0047927D01*
X0020816Y0048926D02*
X0005000Y0048926D01*
X0005000Y0049924D02*
X0021619Y0049924D01*
X0023156Y0050923D02*
X0005000Y0050923D01*
X0005000Y0051921D02*
X0073500Y0051921D01*
X0073500Y0052920D02*
X0005000Y0052920D01*
X0005000Y0053918D02*
X0073500Y0053918D01*
X0073500Y0054917D02*
X0005000Y0054917D01*
X0005000Y0055915D02*
X0073500Y0055915D01*
X0073500Y0056914D02*
X0019869Y0056914D01*
X0019656Y0056700D02*
X0020300Y0057344D01*
X0020300Y0065656D01*
X0019656Y0066300D01*
X0011344Y0066300D01*
X0010700Y0065656D01*
X0010700Y0057344D01*
X0011344Y0056700D01*
X0019656Y0056700D01*
X0020300Y0057912D02*
X0073500Y0057912D01*
X0073500Y0058911D02*
X0020300Y0058911D01*
X0020300Y0059909D02*
X0073500Y0059909D01*
X0073500Y0060908D02*
X0020300Y0060908D01*
X0020300Y0061906D02*
X0073500Y0061906D01*
X0073500Y0062905D02*
X0020300Y0062905D01*
X0020300Y0063903D02*
X0073500Y0063903D01*
X0073500Y0064902D02*
X0020300Y0064902D01*
X0020055Y0065900D02*
X0073500Y0065900D01*
X0073500Y0066899D02*
X0016935Y0066899D01*
X0016455Y0066700D02*
X0018219Y0067431D01*
X0019569Y0068781D01*
X0020300Y0070545D01*
X0020300Y0072455D01*
X0019569Y0074219D01*
X0018219Y0075569D01*
X0016455Y0076300D01*
X0014545Y0076300D01*
X0012781Y0075569D01*
X0011431Y0074219D01*
X0010700Y0072455D01*
X0010700Y0070545D01*
X0011431Y0068781D01*
X0012781Y0067431D01*
X0014545Y0066700D01*
X0016455Y0066700D01*
X0014065Y0066899D02*
X0005000Y0066899D01*
X0005000Y0067897D02*
X0012314Y0067897D01*
X0011383Y0068896D02*
X0005000Y0068896D01*
X0005000Y0069894D02*
X0010970Y0069894D01*
X0010700Y0070893D02*
X0005000Y0070893D01*
X0005000Y0071891D02*
X0010700Y0071891D01*
X0010880Y0072890D02*
X0005000Y0072890D01*
X0005000Y0073888D02*
X0011294Y0073888D01*
X0012099Y0074887D02*
X0005000Y0074887D01*
X0005000Y0075885D02*
X0013544Y0075885D01*
X0014101Y0076884D02*
X0005000Y0076884D01*
X0005000Y0077882D02*
X0012329Y0077882D01*
X0012781Y0077431D02*
X0011431Y0078781D01*
X0010700Y0080545D01*
X0010700Y0082455D01*
X0011431Y0084219D01*
X0012781Y0085569D01*
X0014545Y0086300D01*
X0016455Y0086300D01*
X0018219Y0085569D01*
X0019569Y0084219D01*
X0020300Y0082455D01*
X0020300Y0080545D01*
X0019569Y0078781D01*
X0018219Y0077431D01*
X0016455Y0076700D01*
X0014545Y0076700D01*
X0012781Y0077431D01*
X0011389Y0078881D02*
X0005000Y0078881D01*
X0005000Y0079879D02*
X0010976Y0079879D01*
X0010700Y0080878D02*
X0005000Y0080878D01*
X0005000Y0081876D02*
X0010700Y0081876D01*
X0010874Y0082875D02*
X0005000Y0082875D01*
X0005000Y0083873D02*
X0011288Y0083873D01*
X0012084Y0084872D02*
X0005000Y0084872D01*
X0005000Y0085870D02*
X0013508Y0085870D01*
X0014137Y0086869D02*
X0005000Y0086869D01*
X0005000Y0087868D02*
X0012344Y0087868D01*
X0012781Y0087431D02*
X0011431Y0088781D01*
X0010700Y0090545D01*
X0010700Y0092455D01*
X0011431Y0094219D01*
X0012781Y0095569D01*
X0014545Y0096300D01*
X0016455Y0096300D01*
X0018219Y0095569D01*
X0019569Y0094219D01*
X0020300Y0092455D01*
X0020300Y0090545D01*
X0019569Y0088781D01*
X0018219Y0087431D01*
X0016455Y0086700D01*
X0014545Y0086700D01*
X0012781Y0087431D01*
X0011396Y0088866D02*
X0005000Y0088866D01*
X0005000Y0089865D02*
X0010982Y0089865D01*
X0010700Y0090863D02*
X0005000Y0090863D01*
X0005000Y0091862D02*
X0010700Y0091862D01*
X0010868Y0092860D02*
X0005000Y0092860D01*
X0005000Y0093859D02*
X0011281Y0093859D01*
X0012069Y0094857D02*
X0005000Y0094857D01*
X0005000Y0095856D02*
X0013472Y0095856D01*
X0014173Y0096854D02*
X0005000Y0096854D01*
X0005000Y0097853D02*
X0012359Y0097853D01*
X0012781Y0097431D02*
X0014545Y0096700D01*
X0016455Y0096700D01*
X0018219Y0097431D01*
X0019569Y0098781D01*
X0020300Y0100545D01*
X0020300Y0102455D01*
X0019569Y0104219D01*
X0018219Y0105569D01*
X0016455Y0106300D01*
X0014545Y0106300D01*
X0012781Y0105569D01*
X0011431Y0104219D01*
X0010700Y0102455D01*
X0010700Y0100545D01*
X0011431Y0098781D01*
X0012781Y0097431D01*
X0011402Y0098851D02*
X0005000Y0098851D01*
X0005000Y0099850D02*
X0010988Y0099850D01*
X0010700Y0100848D02*
X0005000Y0100848D01*
X0005000Y0101847D02*
X0010700Y0101847D01*
X0010862Y0102845D02*
X0005000Y0102845D01*
X0005000Y0103844D02*
X0011275Y0103844D01*
X0012054Y0104842D02*
X0005000Y0104842D01*
X0005000Y0105841D02*
X0013436Y0105841D01*
X0014209Y0106839D02*
X0005000Y0106839D01*
X0005000Y0107838D02*
X0012374Y0107838D01*
X0012781Y0107431D02*
X0011431Y0108781D01*
X0010700Y0110545D01*
X0010700Y0112455D01*
X0011431Y0114219D01*
X0012781Y0115569D01*
X0014545Y0116300D01*
X0016455Y0116300D01*
X0018219Y0115569D01*
X0019569Y0114219D01*
X0020300Y0112455D01*
X0020300Y0110545D01*
X0019569Y0108781D01*
X0018219Y0107431D01*
X0016455Y0106700D01*
X0014545Y0106700D01*
X0012781Y0107431D01*
X0011408Y0108836D02*
X0005000Y0108836D01*
X0005000Y0109835D02*
X0010994Y0109835D01*
X0010700Y0110833D02*
X0005000Y0110833D01*
X0005000Y0111832D02*
X0010700Y0111832D01*
X0010856Y0112830D02*
X0005000Y0112830D01*
X0005000Y0113829D02*
X0011269Y0113829D01*
X0012039Y0114827D02*
X0005000Y0114827D01*
X0005000Y0115826D02*
X0013400Y0115826D01*
X0014245Y0116824D02*
X0005000Y0116824D01*
X0005000Y0117823D02*
X0012389Y0117823D01*
X0012781Y0117431D02*
X0011431Y0118781D01*
X0010700Y0120545D01*
X0010700Y0122455D01*
X0011431Y0124219D01*
X0012781Y0125569D01*
X0014545Y0126300D01*
X0016455Y0126300D01*
X0018219Y0125569D01*
X0019569Y0124219D01*
X0020300Y0122455D01*
X0020300Y0120545D01*
X0019569Y0118781D01*
X0018219Y0117431D01*
X0016455Y0116700D01*
X0014545Y0116700D01*
X0012781Y0117431D01*
X0011414Y0118821D02*
X0005000Y0118821D01*
X0005000Y0119820D02*
X0011000Y0119820D01*
X0010700Y0120818D02*
X0005000Y0120818D01*
X0005000Y0121817D02*
X0010700Y0121817D01*
X0010849Y0122815D02*
X0005000Y0122815D01*
X0005000Y0123814D02*
X0011263Y0123814D01*
X0012024Y0124812D02*
X0005000Y0124812D01*
X0005000Y0125811D02*
X0013365Y0125811D01*
X0014281Y0126809D02*
X0005000Y0126809D01*
X0005000Y0127808D02*
X0012404Y0127808D01*
X0012781Y0127431D02*
X0011431Y0128781D01*
X0010700Y0130545D01*
X0010700Y0132455D01*
X0011431Y0134219D01*
X0012781Y0135569D01*
X0014545Y0136300D01*
X0016455Y0136300D01*
X0018219Y0135569D01*
X0019569Y0134219D01*
X0020300Y0132455D01*
X0020300Y0130545D01*
X0019569Y0128781D01*
X0018219Y0127431D01*
X0016455Y0126700D01*
X0014545Y0126700D01*
X0012781Y0127431D01*
X0011420Y0128806D02*
X0005000Y0128806D01*
X0005000Y0129805D02*
X0011007Y0129805D01*
X0010700Y0130803D02*
X0005000Y0130803D01*
X0005000Y0131802D02*
X0010700Y0131802D01*
X0010843Y0132801D02*
X0005000Y0132801D01*
X0005000Y0133799D02*
X0011257Y0133799D01*
X0012009Y0134798D02*
X0005000Y0134798D01*
X0005000Y0135796D02*
X0013329Y0135796D01*
X0017671Y0135796D02*
X0073500Y0135796D01*
X0073500Y0134798D02*
X0018991Y0134798D01*
X0019743Y0133799D02*
X0073500Y0133799D01*
X0073500Y0132801D02*
X0020157Y0132801D01*
X0020300Y0131802D02*
X0073500Y0131802D01*
X0073500Y0130803D02*
X0071157Y0130803D01*
X0073029Y0129805D02*
X0073500Y0129805D01*
X0073500Y0136795D02*
X0005000Y0136795D01*
X0005000Y0137793D02*
X0073500Y0137793D01*
X0073500Y0138792D02*
X0005000Y0138792D01*
X0005000Y0139790D02*
X0073500Y0139790D01*
X0073500Y0140789D02*
X0005000Y0140789D01*
X0005000Y0141787D02*
X0073500Y0141787D01*
X0073500Y0142786D02*
X0005000Y0142786D01*
X0005000Y0143784D02*
X0073500Y0143784D01*
X0073500Y0144783D02*
X0005000Y0144783D01*
X0005000Y0145781D02*
X0073500Y0145781D01*
X0073500Y0146780D02*
X0005000Y0146780D01*
X0005000Y0147778D02*
X0073500Y0147778D01*
X0073500Y0148777D02*
X0005000Y0148777D01*
X0005000Y0149775D02*
X0073500Y0149775D01*
X0073500Y0150774D02*
X0005000Y0150774D01*
X0005000Y0151772D02*
X0073500Y0151772D01*
X0073500Y0152771D02*
X0005000Y0152771D01*
X0005000Y0153769D02*
X0073500Y0153769D01*
X0073500Y0154768D02*
X0005000Y0154768D01*
X0005000Y0155766D02*
X0073500Y0155766D01*
X0073500Y0156765D02*
X0005000Y0156765D01*
X0005000Y0157763D02*
X0073500Y0157763D01*
X0073500Y0158762D02*
X0005000Y0158762D01*
X0005000Y0159760D02*
X0022772Y0159760D01*
X0023087Y0159600D02*
X0023798Y0159369D01*
X0024409Y0159272D01*
X0024409Y0163500D01*
X0020181Y0163500D01*
X0020278Y0162888D01*
X0020509Y0162177D01*
X0020849Y0161511D01*
X0021288Y0160907D01*
X0021816Y0160378D01*
X0022421Y0159939D01*
X0023087Y0159600D01*
X0021436Y0160759D02*
X0005000Y0160759D01*
X0005000Y0161757D02*
X0020723Y0161757D01*
X0020321Y0162756D02*
X0005000Y0162756D01*
X0005000Y0163754D02*
X0024409Y0163754D01*
X0024409Y0163500D02*
X0024409Y0164500D01*
X0020181Y0164500D01*
X0020278Y0165112D01*
X0020509Y0165823D01*
X0020849Y0166489D01*
X0021288Y0167093D01*
X0021816Y0167622D01*
X0022421Y0168061D01*
X0023087Y0168400D01*
X0023798Y0168631D01*
X0024409Y0168728D01*
X0024409Y0164500D01*
X0025409Y0164500D01*
X0025409Y0168728D01*
X0026021Y0168631D01*
X0026732Y0168400D01*
X0027398Y0168061D01*
X0028003Y0167622D01*
X0028531Y0167093D01*
X0028970Y0166489D01*
X0029310Y0165823D01*
X0029541Y0165112D01*
X0029637Y0164500D01*
X0025409Y0164500D01*
X0025409Y0163500D01*
X0025409Y0159272D01*
X0026021Y0159369D01*
X0026732Y0159600D01*
X0027398Y0159939D01*
X0028003Y0160378D01*
X0028531Y0160907D01*
X0028970Y0161511D01*
X0029310Y0162177D01*
X0029541Y0162888D01*
X0029637Y0163500D01*
X0025409Y0163500D01*
X0024409Y0163500D01*
X0024409Y0162756D02*
X0025409Y0162756D01*
X0025409Y0163754D02*
X0032372Y0163754D01*
X0032372Y0163135D02*
X0033034Y0161537D01*
X0034258Y0160314D01*
X0035856Y0159652D01*
X0037585Y0159652D01*
X0039183Y0160314D01*
X0040407Y0161537D01*
X0041068Y0163135D01*
X0041068Y0164865D01*
X0040407Y0166463D01*
X0039183Y0167686D01*
X0037585Y0168348D01*
X0035856Y0168348D01*
X0034258Y0167686D01*
X0033034Y0166463D01*
X0032372Y0164865D01*
X0032372Y0163135D01*
X0032530Y0162756D02*
X0029498Y0162756D01*
X0029096Y0161757D02*
X0032943Y0161757D01*
X0033813Y0160759D02*
X0028383Y0160759D01*
X0027047Y0159760D02*
X0035594Y0159760D01*
X0037847Y0159760D02*
X0069059Y0159760D01*
X0067277Y0160759D02*
X0039628Y0160759D01*
X0040498Y0161757D02*
X0066408Y0161757D01*
X0065994Y0162756D02*
X0040911Y0162756D01*
X0041068Y0163754D02*
X0065837Y0163754D01*
X0065837Y0164753D02*
X0041068Y0164753D01*
X0040701Y0165751D02*
X0066204Y0165751D01*
X0066786Y0166750D02*
X0040120Y0166750D01*
X0039033Y0167748D02*
X0067873Y0167748D01*
X0071311Y0159760D02*
X0073500Y0159760D01*
X0073500Y0160759D02*
X0073093Y0160759D01*
X0073500Y0167748D02*
X0072498Y0167748D01*
X0073500Y0168747D02*
X0005000Y0168747D01*
X0005000Y0169745D02*
X0073500Y0169745D01*
X0073500Y0170744D02*
X0005000Y0170744D01*
X0005000Y0171742D02*
X0073500Y0171742D01*
X0073500Y0172741D02*
X0005000Y0172741D01*
X0005000Y0173739D02*
X0073500Y0173739D01*
X0073500Y0174738D02*
X0005000Y0174738D01*
X0005000Y0175737D02*
X0073500Y0175737D01*
X0073500Y0176735D02*
X0005000Y0176735D01*
X0005000Y0177734D02*
X0073500Y0177734D01*
X0073500Y0178732D02*
X0005000Y0178732D01*
X0005000Y0179731D02*
X0073500Y0179731D01*
X0073500Y0180729D02*
X0005000Y0180729D01*
X0005000Y0181728D02*
X0073500Y0181728D01*
X0073500Y0182726D02*
X0005000Y0182726D01*
X0005000Y0183725D02*
X0073500Y0183725D01*
X0073500Y0184723D02*
X0066077Y0184723D01*
X0065154Y0183800D02*
X0068200Y0186846D01*
X0068200Y0188500D01*
X0063500Y0188500D01*
X0063500Y0189500D01*
X0068200Y0189500D01*
X0068200Y0191154D01*
X0065154Y0194200D01*
X0063500Y0194200D01*
X0063500Y0189500D01*
X0062500Y0189500D01*
X0062500Y0194200D01*
X0060846Y0194200D01*
X0058000Y0191354D01*
X0055154Y0194200D01*
X0053500Y0194200D01*
X0053500Y0189500D01*
X0052500Y0189500D01*
X0052500Y0194200D01*
X0050846Y0194200D01*
X0048000Y0191354D01*
X0045154Y0194200D01*
X0043500Y0194200D01*
X0043500Y0189500D01*
X0042500Y0189500D01*
X0042500Y0194200D01*
X0040846Y0194200D01*
X0038000Y0191354D01*
X0035154Y0194200D01*
X0033500Y0194200D01*
X0033500Y0189500D01*
X0032500Y0189500D01*
X0032500Y0194200D01*
X0030846Y0194200D01*
X0028000Y0191354D01*
X0025154Y0194200D01*
X0023500Y0194200D01*
X0023500Y0189500D01*
X0022500Y0189500D01*
X0022500Y0194200D01*
X0020846Y0194200D01*
X0017800Y0191154D01*
X0017800Y0189500D01*
X0022500Y0189500D01*
X0022500Y0188500D01*
X0023500Y0188500D01*
X0023500Y0189500D01*
X0032500Y0189500D01*
X0032500Y0188500D01*
X0033500Y0188500D01*
X0033500Y0189500D01*
X0042500Y0189500D01*
X0042500Y0188500D01*
X0043500Y0188500D01*
X0043500Y0189500D01*
X0052500Y0189500D01*
X0052500Y0188500D01*
X0053500Y0188500D01*
X0053500Y0189500D01*
X0062500Y0189500D01*
X0062500Y0188500D01*
X0063500Y0188500D01*
X0063500Y0183800D01*
X0065154Y0183800D01*
X0063500Y0184723D02*
X0062500Y0184723D01*
X0062500Y0183800D02*
X0062500Y0188500D01*
X0057800Y0188500D01*
X0053500Y0188500D01*
X0053500Y0183800D01*
X0055154Y0183800D01*
X0058000Y0186646D01*
X0060846Y0183800D01*
X0062500Y0183800D01*
X0062500Y0185722D02*
X0063500Y0185722D01*
X0063500Y0186720D02*
X0062500Y0186720D01*
X0062500Y0187719D02*
X0063500Y0187719D01*
X0063500Y0188717D02*
X0073500Y0188717D01*
X0073500Y0187719D02*
X0068200Y0187719D01*
X0068074Y0186720D02*
X0073500Y0186720D01*
X0073500Y0185722D02*
X0067076Y0185722D01*
X0068200Y0189716D02*
X0073500Y0189716D01*
X0073500Y0190714D02*
X0068200Y0190714D01*
X0067641Y0191713D02*
X0073500Y0191713D01*
X0073500Y0192711D02*
X0066643Y0192711D01*
X0065644Y0193710D02*
X0073500Y0193710D01*
X0073500Y0194708D02*
X0065496Y0194708D01*
X0064988Y0194200D02*
X0067800Y0197012D01*
X0067800Y0200988D01*
X0064988Y0203800D01*
X0061012Y0203800D01*
X0058200Y0200988D01*
X0058200Y0197012D01*
X0061012Y0194200D01*
X0064988Y0194200D01*
X0066495Y0195707D02*
X0073500Y0195707D01*
X0073500Y0196705D02*
X0067493Y0196705D01*
X0067800Y0197704D02*
X0073500Y0197704D01*
X0073500Y0198702D02*
X0067800Y0198702D01*
X0067800Y0199701D02*
X0073445Y0199701D01*
X0073158Y0200699D02*
X0067800Y0200699D01*
X0067090Y0201698D02*
X0072746Y0201698D01*
X0072020Y0202696D02*
X0066092Y0202696D01*
X0065093Y0203695D02*
X0070753Y0203695D01*
X0063500Y0193710D02*
X0062500Y0193710D01*
X0062500Y0192711D02*
X0063500Y0192711D01*
X0063500Y0191713D02*
X0062500Y0191713D01*
X0062500Y0190714D02*
X0063500Y0190714D01*
X0063500Y0189716D02*
X0062500Y0189716D01*
X0062500Y0188717D02*
X0053500Y0188717D01*
X0053500Y0187719D02*
X0052500Y0187719D01*
X0052500Y0188500D02*
X0052500Y0183800D01*
X0050846Y0183800D01*
X0048000Y0186646D01*
X0045154Y0183800D01*
X0043500Y0183800D01*
X0043500Y0188500D01*
X0047800Y0188500D01*
X0052500Y0188500D01*
X0052500Y0188717D02*
X0043500Y0188717D01*
X0043500Y0187719D02*
X0042500Y0187719D01*
X0042500Y0188500D02*
X0042500Y0183800D01*
X0040846Y0183800D01*
X0038000Y0186646D01*
X0035154Y0183800D01*
X0033500Y0183800D01*
X0033500Y0188500D01*
X0037800Y0188500D01*
X0042500Y0188500D01*
X0042500Y0188717D02*
X0033500Y0188717D01*
X0033500Y0187719D02*
X0032500Y0187719D01*
X0032500Y0188500D02*
X0032500Y0183800D01*
X0030846Y0183800D01*
X0028000Y0186646D01*
X0025154Y0183800D01*
X0023500Y0183800D01*
X0023500Y0188500D01*
X0027800Y0188500D01*
X0032500Y0188500D01*
X0032500Y0188717D02*
X0023500Y0188717D01*
X0023500Y0187719D02*
X0022500Y0187719D01*
X0022500Y0188500D02*
X0022500Y0183800D01*
X0020846Y0183800D01*
X0017800Y0186846D01*
X0017800Y0188500D01*
X0022500Y0188500D01*
X0022500Y0188717D02*
X0005000Y0188717D01*
X0005000Y0187719D02*
X0017800Y0187719D01*
X0017926Y0186720D02*
X0005000Y0186720D01*
X0005000Y0185722D02*
X0018924Y0185722D01*
X0019923Y0184723D02*
X0005000Y0184723D01*
X0005000Y0189716D02*
X0017800Y0189716D01*
X0017800Y0190714D02*
X0005000Y0190714D01*
X0005000Y0191713D02*
X0018359Y0191713D01*
X0019357Y0192711D02*
X0005000Y0192711D01*
X0005000Y0193710D02*
X0020356Y0193710D01*
X0021012Y0194200D02*
X0024988Y0194200D01*
X0027800Y0197012D01*
X0027800Y0200988D01*
X0024988Y0203800D01*
X0021012Y0203800D01*
X0018200Y0200988D01*
X0018200Y0197012D01*
X0021012Y0194200D01*
X0020504Y0194708D02*
X0005000Y0194708D01*
X0005000Y0195707D02*
X0019505Y0195707D01*
X0018507Y0196705D02*
X0005000Y0196705D01*
X0005000Y0197704D02*
X0018200Y0197704D01*
X0018200Y0198702D02*
X0005000Y0198702D01*
X0005055Y0199701D02*
X0018200Y0199701D01*
X0018200Y0200699D02*
X0005342Y0200699D01*
X0005754Y0201698D02*
X0018910Y0201698D01*
X0019908Y0202696D02*
X0006480Y0202696D01*
X0007747Y0203695D02*
X0020907Y0203695D01*
X0022500Y0193710D02*
X0023500Y0193710D01*
X0023500Y0192711D02*
X0022500Y0192711D01*
X0022500Y0191713D02*
X0023500Y0191713D01*
X0023500Y0190714D02*
X0022500Y0190714D01*
X0022500Y0189716D02*
X0023500Y0189716D01*
X0023500Y0186720D02*
X0022500Y0186720D01*
X0022500Y0185722D02*
X0023500Y0185722D01*
X0023500Y0184723D02*
X0022500Y0184723D01*
X0026077Y0184723D02*
X0029923Y0184723D01*
X0028924Y0185722D02*
X0027076Y0185722D01*
X0027641Y0191713D02*
X0028359Y0191713D01*
X0029357Y0192711D02*
X0026643Y0192711D01*
X0025644Y0193710D02*
X0030356Y0193710D01*
X0031012Y0194200D02*
X0034988Y0194200D01*
X0037800Y0197012D01*
X0037800Y0200988D01*
X0034988Y0203800D01*
X0031012Y0203800D01*
X0028200Y0200988D01*
X0028200Y0197012D01*
X0031012Y0194200D01*
X0030504Y0194708D02*
X0025496Y0194708D01*
X0026495Y0195707D02*
X0029505Y0195707D01*
X0028507Y0196705D02*
X0027493Y0196705D01*
X0027800Y0197704D02*
X0028200Y0197704D01*
X0028200Y0198702D02*
X0027800Y0198702D01*
X0027800Y0199701D02*
X0028200Y0199701D01*
X0028200Y0200699D02*
X0027800Y0200699D01*
X0027090Y0201698D02*
X0028910Y0201698D01*
X0029908Y0202696D02*
X0026092Y0202696D01*
X0025093Y0203695D02*
X0030907Y0203695D01*
X0032500Y0193710D02*
X0033500Y0193710D01*
X0033500Y0192711D02*
X0032500Y0192711D01*
X0032500Y0191713D02*
X0033500Y0191713D01*
X0033500Y0190714D02*
X0032500Y0190714D01*
X0032500Y0189716D02*
X0033500Y0189716D01*
X0033500Y0186720D02*
X0032500Y0186720D01*
X0032500Y0185722D02*
X0033500Y0185722D01*
X0033500Y0184723D02*
X0032500Y0184723D01*
X0036077Y0184723D02*
X0039923Y0184723D01*
X0038924Y0185722D02*
X0037076Y0185722D01*
X0037641Y0191713D02*
X0038359Y0191713D01*
X0039357Y0192711D02*
X0036643Y0192711D01*
X0035644Y0193710D02*
X0040356Y0193710D01*
X0041012Y0194200D02*
X0044988Y0194200D01*
X0047800Y0197012D01*
X0047800Y0200988D01*
X0044988Y0203800D01*
X0041012Y0203800D01*
X0038200Y0200988D01*
X0038200Y0197012D01*
X0041012Y0194200D01*
X0040504Y0194708D02*
X0035496Y0194708D01*
X0036495Y0195707D02*
X0039505Y0195707D01*
X0038507Y0196705D02*
X0037493Y0196705D01*
X0037800Y0197704D02*
X0038200Y0197704D01*
X0038200Y0198702D02*
X0037800Y0198702D01*
X0037800Y0199701D02*
X0038200Y0199701D01*
X0038200Y0200699D02*
X0037800Y0200699D01*
X0037090Y0201698D02*
X0038910Y0201698D01*
X0039908Y0202696D02*
X0036092Y0202696D01*
X0035093Y0203695D02*
X0040907Y0203695D01*
X0045093Y0203695D02*
X0050907Y0203695D01*
X0051012Y0203800D02*
X0048200Y0200988D01*
X0048200Y0197012D01*
X0051012Y0194200D01*
X0054988Y0194200D01*
X0057800Y0197012D01*
X0057800Y0200988D01*
X0054988Y0203800D01*
X0051012Y0203800D01*
X0049908Y0202696D02*
X0046092Y0202696D01*
X0047090Y0201698D02*
X0048910Y0201698D01*
X0048200Y0200699D02*
X0047800Y0200699D01*
X0047800Y0199701D02*
X0048200Y0199701D01*
X0048200Y0198702D02*
X0047800Y0198702D01*
X0047800Y0197704D02*
X0048200Y0197704D01*
X0048507Y0196705D02*
X0047493Y0196705D01*
X0046495Y0195707D02*
X0049505Y0195707D01*
X0050504Y0194708D02*
X0045496Y0194708D01*
X0045644Y0193710D02*
X0050356Y0193710D01*
X0049357Y0192711D02*
X0046643Y0192711D01*
X0047641Y0191713D02*
X0048359Y0191713D01*
X0048924Y0185722D02*
X0047076Y0185722D01*
X0046077Y0184723D02*
X0049923Y0184723D01*
X0052500Y0184723D02*
X0053500Y0184723D01*
X0053500Y0185722D02*
X0052500Y0185722D01*
X0052500Y0186720D02*
X0053500Y0186720D01*
X0053500Y0189716D02*
X0052500Y0189716D01*
X0052500Y0190714D02*
X0053500Y0190714D01*
X0053500Y0191713D02*
X0052500Y0191713D01*
X0052500Y0192711D02*
X0053500Y0192711D01*
X0053500Y0193710D02*
X0052500Y0193710D01*
X0055644Y0193710D02*
X0060356Y0193710D01*
X0060504Y0194708D02*
X0055496Y0194708D01*
X0056495Y0195707D02*
X0059505Y0195707D01*
X0058507Y0196705D02*
X0057493Y0196705D01*
X0057800Y0197704D02*
X0058200Y0197704D01*
X0058200Y0198702D02*
X0057800Y0198702D01*
X0057800Y0199701D02*
X0058200Y0199701D01*
X0058200Y0200699D02*
X0057800Y0200699D01*
X0057090Y0201698D02*
X0058910Y0201698D01*
X0059908Y0202696D02*
X0056092Y0202696D01*
X0055093Y0203695D02*
X0060907Y0203695D01*
X0059357Y0192711D02*
X0056643Y0192711D01*
X0057641Y0191713D02*
X0058359Y0191713D01*
X0058924Y0185722D02*
X0057076Y0185722D01*
X0056077Y0184723D02*
X0059923Y0184723D01*
X0043500Y0184723D02*
X0042500Y0184723D01*
X0042500Y0185722D02*
X0043500Y0185722D01*
X0043500Y0186720D02*
X0042500Y0186720D01*
X0042500Y0189716D02*
X0043500Y0189716D01*
X0043500Y0190714D02*
X0042500Y0190714D01*
X0042500Y0191713D02*
X0043500Y0191713D01*
X0043500Y0192711D02*
X0042500Y0192711D01*
X0042500Y0193710D02*
X0043500Y0193710D01*
X0034408Y0167748D02*
X0027828Y0167748D01*
X0028780Y0166750D02*
X0033321Y0166750D01*
X0032740Y0165751D02*
X0029333Y0165751D01*
X0029597Y0164753D02*
X0032372Y0164753D01*
X0025409Y0164753D02*
X0024409Y0164753D01*
X0024409Y0165751D02*
X0025409Y0165751D01*
X0025409Y0166750D02*
X0024409Y0166750D01*
X0024409Y0167748D02*
X0025409Y0167748D01*
X0025409Y0161757D02*
X0024409Y0161757D01*
X0024409Y0160759D02*
X0025409Y0160759D01*
X0025409Y0159760D02*
X0024409Y0159760D01*
X0020486Y0165751D02*
X0005000Y0165751D01*
X0005000Y0164753D02*
X0020221Y0164753D01*
X0021038Y0166750D02*
X0005000Y0166750D01*
X0005000Y0167748D02*
X0021991Y0167748D01*
X0024409Y0131228D02*
X0023798Y0131131D01*
X0023087Y0130900D01*
X0022421Y0130561D01*
X0021816Y0130122D01*
X0021288Y0129593D01*
X0020849Y0128989D01*
X0020509Y0128323D01*
X0020278Y0127612D01*
X0020181Y0127000D01*
X0024409Y0127000D01*
X0024409Y0126000D01*
X0020181Y0126000D01*
X0020278Y0125388D01*
X0020509Y0124677D01*
X0020849Y0124011D01*
X0021288Y0123407D01*
X0021816Y0122878D01*
X0022421Y0122439D01*
X0023087Y0122100D01*
X0023798Y0121869D01*
X0024409Y0121772D01*
X0024409Y0126000D01*
X0025409Y0126000D01*
X0025409Y0121772D01*
X0026021Y0121869D01*
X0026732Y0122100D01*
X0027398Y0122439D01*
X0028003Y0122878D01*
X0028531Y0123407D01*
X0028970Y0124011D01*
X0029310Y0124677D01*
X0029541Y0125388D01*
X0029637Y0126000D01*
X0025409Y0126000D01*
X0025409Y0127000D01*
X0024409Y0127000D01*
X0024409Y0131228D01*
X0024409Y0130803D02*
X0025409Y0130803D01*
X0025409Y0131228D02*
X0025409Y0127000D01*
X0029637Y0127000D01*
X0029541Y0127612D01*
X0029310Y0128323D01*
X0028970Y0128989D01*
X0028531Y0129593D01*
X0028003Y0130122D01*
X0027398Y0130561D01*
X0026732Y0130900D01*
X0026021Y0131131D01*
X0025409Y0131228D01*
X0025409Y0129805D02*
X0024409Y0129805D01*
X0024409Y0128806D02*
X0025409Y0128806D01*
X0025409Y0127808D02*
X0024409Y0127808D01*
X0024409Y0126809D02*
X0016719Y0126809D01*
X0017635Y0125811D02*
X0020211Y0125811D01*
X0020465Y0124812D02*
X0018976Y0124812D01*
X0019737Y0123814D02*
X0020992Y0123814D01*
X0020151Y0122815D02*
X0021903Y0122815D01*
X0020300Y0121817D02*
X0024126Y0121817D01*
X0024409Y0121817D02*
X0025409Y0121817D01*
X0025693Y0121817D02*
X0073500Y0121817D01*
X0073500Y0122815D02*
X0072649Y0122815D01*
X0073500Y0120818D02*
X0020300Y0120818D01*
X0020000Y0119820D02*
X0073500Y0119820D01*
X0073500Y0118821D02*
X0019586Y0118821D01*
X0018611Y0117823D02*
X0073500Y0117823D01*
X0073500Y0116824D02*
X0016755Y0116824D01*
X0017600Y0115826D02*
X0073500Y0115826D01*
X0073500Y0114827D02*
X0018961Y0114827D01*
X0019731Y0113829D02*
X0073500Y0113829D01*
X0073500Y0112830D02*
X0020144Y0112830D01*
X0020300Y0111832D02*
X0073500Y0111832D01*
X0073500Y0110833D02*
X0020300Y0110833D01*
X0020006Y0109835D02*
X0073500Y0109835D01*
X0073500Y0108836D02*
X0019592Y0108836D01*
X0018626Y0107838D02*
X0073500Y0107838D01*
X0073500Y0106839D02*
X0016791Y0106839D01*
X0017564Y0105841D02*
X0073500Y0105841D01*
X0073500Y0104842D02*
X0018946Y0104842D01*
X0019725Y0103844D02*
X0073500Y0103844D01*
X0073500Y0102845D02*
X0020138Y0102845D01*
X0020300Y0101847D02*
X0073500Y0101847D01*
X0073500Y0100848D02*
X0020300Y0100848D01*
X0020012Y0099850D02*
X0073500Y0099850D01*
X0073500Y0098851D02*
X0019598Y0098851D01*
X0018641Y0097853D02*
X0073500Y0097853D01*
X0073500Y0096854D02*
X0016827Y0096854D01*
X0017528Y0095856D02*
X0073500Y0095856D01*
X0073500Y0094857D02*
X0018931Y0094857D01*
X0019719Y0093859D02*
X0073500Y0093859D01*
X0073500Y0092860D02*
X0020132Y0092860D01*
X0020300Y0091862D02*
X0073500Y0091862D01*
X0073500Y0090863D02*
X0026805Y0090863D01*
X0026732Y0090900D02*
X0026021Y0091131D01*
X0025409Y0091228D01*
X0025409Y0087000D01*
X0024409Y0087000D01*
X0024409Y0086000D01*
X0020181Y0086000D01*
X0020278Y0085388D01*
X0020509Y0084677D01*
X0020849Y0084011D01*
X0021288Y0083407D01*
X0021816Y0082878D01*
X0022421Y0082439D01*
X0023087Y0082100D01*
X0023798Y0081869D01*
X0024409Y0081772D01*
X0024409Y0086000D01*
X0025409Y0086000D01*
X0025409Y0081772D01*
X0026021Y0081869D01*
X0026732Y0082100D01*
X0027398Y0082439D01*
X0028003Y0082878D01*
X0028531Y0083407D01*
X0028970Y0084011D01*
X0029310Y0084677D01*
X0029541Y0085388D01*
X0029637Y0086000D01*
X0025409Y0086000D01*
X0025409Y0087000D01*
X0029637Y0087000D01*
X0029541Y0087612D01*
X0029310Y0088323D01*
X0028970Y0088989D01*
X0028531Y0089593D01*
X0028003Y0090122D01*
X0027398Y0090561D01*
X0026732Y0090900D01*
X0028260Y0089865D02*
X0033936Y0089865D01*
X0034258Y0090186D02*
X0033034Y0088963D01*
X0032372Y0087365D01*
X0032372Y0085635D01*
X0033034Y0084037D01*
X0034258Y0082814D01*
X0035856Y0082152D01*
X0037585Y0082152D01*
X0039183Y0082814D01*
X0040407Y0084037D01*
X0041068Y0085635D01*
X0041068Y0087365D01*
X0040407Y0088963D01*
X0039183Y0090186D01*
X0037585Y0090848D01*
X0035856Y0090848D01*
X0034258Y0090186D01*
X0032994Y0088866D02*
X0029033Y0088866D01*
X0029457Y0087868D02*
X0032581Y0087868D01*
X0032372Y0086869D02*
X0025409Y0086869D01*
X0025409Y0085870D02*
X0024409Y0085870D01*
X0024409Y0084872D02*
X0025409Y0084872D01*
X0025409Y0083873D02*
X0024409Y0083873D01*
X0024409Y0082875D02*
X0025409Y0082875D01*
X0025409Y0081876D02*
X0024409Y0081876D01*
X0023774Y0081876D02*
X0020300Y0081876D01*
X0020300Y0080878D02*
X0073500Y0080878D01*
X0073500Y0081876D02*
X0026045Y0081876D01*
X0027998Y0082875D02*
X0034196Y0082875D01*
X0033198Y0083873D02*
X0028870Y0083873D01*
X0029373Y0084872D02*
X0032689Y0084872D01*
X0032372Y0085870D02*
X0029617Y0085870D01*
X0025409Y0087868D02*
X0024409Y0087868D01*
X0024409Y0087000D02*
X0024409Y0091228D01*
X0023798Y0091131D01*
X0023087Y0090900D01*
X0022421Y0090561D01*
X0021816Y0090122D01*
X0021288Y0089593D01*
X0020849Y0088989D01*
X0020509Y0088323D01*
X0020278Y0087612D01*
X0020181Y0087000D01*
X0024409Y0087000D01*
X0024409Y0086869D02*
X0016863Y0086869D01*
X0017492Y0085870D02*
X0020202Y0085870D01*
X0020446Y0084872D02*
X0018916Y0084872D01*
X0019712Y0083873D02*
X0020949Y0083873D01*
X0020126Y0082875D02*
X0021821Y0082875D01*
X0020024Y0079879D02*
X0073500Y0079879D01*
X0073500Y0078881D02*
X0019611Y0078881D01*
X0018671Y0077882D02*
X0073500Y0077882D01*
X0073500Y0076884D02*
X0016899Y0076884D01*
X0017456Y0075885D02*
X0073500Y0075885D01*
X0073500Y0074887D02*
X0018901Y0074887D01*
X0019706Y0073888D02*
X0073500Y0073888D01*
X0073500Y0072890D02*
X0020120Y0072890D01*
X0020300Y0071891D02*
X0073500Y0071891D01*
X0073500Y0070893D02*
X0020300Y0070893D01*
X0020030Y0069894D02*
X0073500Y0069894D01*
X0073500Y0068896D02*
X0019617Y0068896D01*
X0018685Y0067897D02*
X0073500Y0067897D01*
X0073500Y0082875D02*
X0072709Y0082875D01*
X0072970Y0089865D02*
X0073500Y0089865D01*
X0067661Y0082875D02*
X0039244Y0082875D01*
X0040243Y0083873D02*
X0066663Y0083873D01*
X0066153Y0084872D02*
X0040752Y0084872D01*
X0041068Y0085870D02*
X0065837Y0085870D01*
X0065837Y0086869D02*
X0041068Y0086869D01*
X0040860Y0087868D02*
X0066045Y0087868D01*
X0066459Y0088866D02*
X0040447Y0088866D01*
X0039505Y0089865D02*
X0067401Y0089865D01*
X0067721Y0122815D02*
X0039185Y0122815D01*
X0039183Y0122814D02*
X0040407Y0124037D01*
X0041068Y0125635D01*
X0041068Y0127365D01*
X0040407Y0128963D01*
X0039183Y0130186D01*
X0037585Y0130848D01*
X0035856Y0130848D01*
X0034258Y0130186D01*
X0033034Y0128963D01*
X0032372Y0127365D01*
X0032372Y0125635D01*
X0033034Y0124037D01*
X0034258Y0122814D01*
X0035856Y0122152D01*
X0037585Y0122152D01*
X0039183Y0122814D01*
X0040183Y0123814D02*
X0066722Y0123814D01*
X0066178Y0124812D02*
X0040728Y0124812D01*
X0041068Y0125811D02*
X0065837Y0125811D01*
X0065837Y0126809D02*
X0041068Y0126809D01*
X0040885Y0127808D02*
X0066021Y0127808D01*
X0066434Y0128806D02*
X0040471Y0128806D01*
X0039565Y0129805D02*
X0067341Y0129805D01*
X0069213Y0130803D02*
X0037693Y0130803D01*
X0035748Y0130803D02*
X0026922Y0130803D01*
X0028319Y0129805D02*
X0033876Y0129805D01*
X0032970Y0128806D02*
X0029063Y0128806D01*
X0029477Y0127808D02*
X0032556Y0127808D01*
X0032372Y0126809D02*
X0025409Y0126809D01*
X0025409Y0125811D02*
X0024409Y0125811D01*
X0024409Y0124812D02*
X0025409Y0124812D01*
X0025409Y0123814D02*
X0024409Y0123814D01*
X0024409Y0122815D02*
X0025409Y0122815D01*
X0027916Y0122815D02*
X0034256Y0122815D01*
X0033258Y0123814D02*
X0028827Y0123814D01*
X0029353Y0124812D02*
X0032713Y0124812D01*
X0032372Y0125811D02*
X0029608Y0125811D01*
X0022897Y0130803D02*
X0020300Y0130803D01*
X0019993Y0129805D02*
X0021500Y0129805D01*
X0020756Y0128806D02*
X0019580Y0128806D01*
X0020342Y0127808D02*
X0018596Y0127808D01*
X0020300Y0090863D02*
X0023014Y0090863D01*
X0021559Y0089865D02*
X0020018Y0089865D01*
X0019604Y0088866D02*
X0020786Y0088866D01*
X0020361Y0087868D02*
X0018656Y0087868D01*
X0024409Y0088866D02*
X0025409Y0088866D01*
X0025409Y0089865D02*
X0024409Y0089865D01*
X0024409Y0090863D02*
X0025409Y0090863D01*
X0010945Y0065900D02*
X0005000Y0065900D01*
X0005000Y0064902D02*
X0010700Y0064902D01*
X0010700Y0063903D02*
X0005000Y0063903D01*
X0005000Y0062905D02*
X0010700Y0062905D01*
X0010700Y0061906D02*
X0005000Y0061906D01*
X0005000Y0060908D02*
X0010700Y0060908D01*
X0010700Y0059909D02*
X0005000Y0059909D01*
X0005000Y0058911D02*
X0010700Y0058911D01*
X0010700Y0057912D02*
X0005000Y0057912D01*
X0005000Y0056914D02*
X0011131Y0056914D01*
X0005000Y0045930D02*
X0020192Y0045930D01*
X0020427Y0044932D02*
X0005000Y0044932D01*
X0005000Y0043933D02*
X0020906Y0043933D01*
X0021760Y0042934D02*
X0005000Y0042934D01*
X0024409Y0042934D02*
X0025409Y0042934D01*
X0025409Y0043933D02*
X0024409Y0043933D01*
X0024409Y0044932D02*
X0025409Y0044932D01*
X0025409Y0045930D02*
X0024409Y0045930D01*
X0024409Y0048926D02*
X0025409Y0048926D01*
X0025409Y0049924D02*
X0024409Y0049924D01*
X0024409Y0050923D02*
X0025409Y0050923D01*
X0028913Y0043933D02*
X0033138Y0043933D01*
X0032664Y0044932D02*
X0029392Y0044932D01*
X0029626Y0045930D02*
X0032372Y0045930D01*
X0034137Y0042934D02*
X0028059Y0042934D01*
X0039304Y0042934D02*
X0067601Y0042934D01*
X0066603Y0043933D02*
X0040303Y0043933D01*
X0040777Y0044932D02*
X0066128Y0044932D01*
X0065837Y0045930D02*
X0041068Y0045930D01*
X0041068Y0046929D02*
X0065837Y0046929D01*
X0066070Y0047927D02*
X0040836Y0047927D01*
X0040422Y0048926D02*
X0066483Y0048926D01*
X0067460Y0049924D02*
X0039445Y0049924D01*
X0068200Y0020967D02*
X0073500Y0020967D01*
X0073500Y0019969D02*
X0068200Y0019969D01*
M02*
