%
M48
M72
T01C0.0400
T02C0.0433
%
T01
X2300Y900
X2300Y1900
X3300Y1900
X3300Y900
X4300Y900
X4300Y1900
X5300Y1900
X5300Y900
X6300Y900
X6300Y1900
X1550Y6150
X1550Y7150
X1550Y8150
X1550Y9150
X1550Y10150
X1550Y11150
X1550Y12150
X1550Y13150
X2300Y18900
X2300Y19900
X3300Y19900
X3300Y18900
X4300Y18900
X4300Y19900
X5300Y19900
X5300Y18900
X6300Y18900
X6300Y19900
T02
X7019Y16400
X7019Y12650
X7019Y8650
X7019Y4650
X3672Y4650
X2491Y4650
X2491Y8650
X3672Y8650
X3672Y12650
X2491Y12650
X2491Y16400
X3672Y16400
M30
