G75*
%MOIN*%
%OFA0B0*%
%FSLAX25Y25*%
%IPPOS*%
%LPD*%
%AMOC8*
5,1,8,0,0,1.08239X$1,22.5*
%
%ADD10C,0.00000*%
D10*
X0003000Y0009000D02*
X0003000Y0199000D01*
X0003002Y0199180D01*
X0003009Y0199360D01*
X0003020Y0199540D01*
X0003035Y0199720D01*
X0003054Y0199899D01*
X0003078Y0200078D01*
X0003106Y0200256D01*
X0003139Y0200433D01*
X0003176Y0200610D01*
X0003217Y0200786D01*
X0003262Y0200960D01*
X0003312Y0201133D01*
X0003365Y0201306D01*
X0003423Y0201476D01*
X0003485Y0201646D01*
X0003551Y0201814D01*
X0003621Y0201980D01*
X0003695Y0202144D01*
X0003773Y0202307D01*
X0003855Y0202467D01*
X0003940Y0202626D01*
X0004030Y0202782D01*
X0004123Y0202937D01*
X0004220Y0203089D01*
X0004321Y0203238D01*
X0004425Y0203385D01*
X0004533Y0203530D01*
X0004644Y0203672D01*
X0004758Y0203811D01*
X0004876Y0203948D01*
X0004998Y0204081D01*
X0005122Y0204212D01*
X0005249Y0204339D01*
X0005380Y0204463D01*
X0005513Y0204585D01*
X0005650Y0204703D01*
X0005789Y0204817D01*
X0005931Y0204928D01*
X0006076Y0205036D01*
X0006223Y0205140D01*
X0006372Y0205241D01*
X0006524Y0205338D01*
X0006679Y0205431D01*
X0006835Y0205521D01*
X0006994Y0205606D01*
X0007154Y0205688D01*
X0007317Y0205766D01*
X0007481Y0205840D01*
X0007647Y0205910D01*
X0007815Y0205976D01*
X0007985Y0206038D01*
X0008155Y0206096D01*
X0008328Y0206149D01*
X0008501Y0206199D01*
X0008675Y0206244D01*
X0008851Y0206285D01*
X0009028Y0206322D01*
X0009205Y0206355D01*
X0009383Y0206383D01*
X0009562Y0206407D01*
X0009741Y0206426D01*
X0009921Y0206441D01*
X0010101Y0206452D01*
X0010281Y0206459D01*
X0010461Y0206461D01*
X0068039Y0206461D01*
X0068219Y0206459D01*
X0068399Y0206452D01*
X0068579Y0206441D01*
X0068759Y0206426D01*
X0068938Y0206407D01*
X0069117Y0206383D01*
X0069295Y0206355D01*
X0069472Y0206322D01*
X0069649Y0206285D01*
X0069825Y0206244D01*
X0069999Y0206199D01*
X0070172Y0206149D01*
X0070345Y0206096D01*
X0070515Y0206038D01*
X0070685Y0205976D01*
X0070853Y0205910D01*
X0071019Y0205840D01*
X0071183Y0205766D01*
X0071346Y0205688D01*
X0071506Y0205606D01*
X0071665Y0205521D01*
X0071821Y0205431D01*
X0071976Y0205338D01*
X0072128Y0205241D01*
X0072277Y0205140D01*
X0072424Y0205036D01*
X0072569Y0204928D01*
X0072711Y0204817D01*
X0072850Y0204703D01*
X0072987Y0204585D01*
X0073120Y0204463D01*
X0073251Y0204339D01*
X0073378Y0204212D01*
X0073502Y0204081D01*
X0073624Y0203948D01*
X0073742Y0203811D01*
X0073856Y0203672D01*
X0073967Y0203530D01*
X0074075Y0203385D01*
X0074179Y0203238D01*
X0074280Y0203089D01*
X0074377Y0202937D01*
X0074470Y0202782D01*
X0074560Y0202626D01*
X0074645Y0202467D01*
X0074727Y0202307D01*
X0074805Y0202144D01*
X0074879Y0201980D01*
X0074949Y0201814D01*
X0075015Y0201646D01*
X0075077Y0201476D01*
X0075135Y0201306D01*
X0075188Y0201133D01*
X0075238Y0200960D01*
X0075283Y0200786D01*
X0075324Y0200610D01*
X0075361Y0200433D01*
X0075394Y0200256D01*
X0075422Y0200078D01*
X0075446Y0199899D01*
X0075465Y0199720D01*
X0075480Y0199540D01*
X0075491Y0199360D01*
X0075498Y0199180D01*
X0075500Y0199000D01*
X0075500Y0009000D01*
X0075498Y0008819D01*
X0075491Y0008638D01*
X0075480Y0008457D01*
X0075465Y0008276D01*
X0075445Y0008096D01*
X0075421Y0007916D01*
X0075393Y0007737D01*
X0075360Y0007559D01*
X0075323Y0007382D01*
X0075282Y0007205D01*
X0075237Y0007030D01*
X0075187Y0006855D01*
X0075133Y0006682D01*
X0075075Y0006511D01*
X0075013Y0006340D01*
X0074946Y0006172D01*
X0074876Y0006005D01*
X0074802Y0005839D01*
X0074723Y0005676D01*
X0074641Y0005515D01*
X0074555Y0005355D01*
X0074465Y0005198D01*
X0074371Y0005043D01*
X0074274Y0004890D01*
X0074172Y0004740D01*
X0074068Y0004592D01*
X0073959Y0004446D01*
X0073848Y0004304D01*
X0073732Y0004164D01*
X0073614Y0004027D01*
X0073492Y0003892D01*
X0073367Y0003761D01*
X0073239Y0003633D01*
X0073108Y0003508D01*
X0072973Y0003386D01*
X0072836Y0003268D01*
X0072696Y0003152D01*
X0072554Y0003041D01*
X0072408Y0002932D01*
X0072260Y0002828D01*
X0072110Y0002726D01*
X0071957Y0002629D01*
X0071802Y0002535D01*
X0071645Y0002445D01*
X0071485Y0002359D01*
X0071324Y0002277D01*
X0071161Y0002198D01*
X0070995Y0002124D01*
X0070828Y0002054D01*
X0070660Y0001987D01*
X0070489Y0001925D01*
X0070318Y0001867D01*
X0070145Y0001813D01*
X0069970Y0001763D01*
X0069795Y0001718D01*
X0069618Y0001677D01*
X0069441Y0001640D01*
X0069263Y0001607D01*
X0069084Y0001579D01*
X0068904Y0001555D01*
X0068724Y0001535D01*
X0068543Y0001520D01*
X0068362Y0001509D01*
X0068181Y0001502D01*
X0068000Y0001500D01*
X0010500Y0001500D01*
X0010319Y0001502D01*
X0010138Y0001509D01*
X0009957Y0001520D01*
X0009776Y0001535D01*
X0009596Y0001555D01*
X0009416Y0001579D01*
X0009237Y0001607D01*
X0009059Y0001640D01*
X0008882Y0001677D01*
X0008705Y0001718D01*
X0008530Y0001763D01*
X0008355Y0001813D01*
X0008182Y0001867D01*
X0008011Y0001925D01*
X0007840Y0001987D01*
X0007672Y0002054D01*
X0007505Y0002124D01*
X0007339Y0002198D01*
X0007176Y0002277D01*
X0007015Y0002359D01*
X0006855Y0002445D01*
X0006698Y0002535D01*
X0006543Y0002629D01*
X0006390Y0002726D01*
X0006240Y0002828D01*
X0006092Y0002932D01*
X0005946Y0003041D01*
X0005804Y0003152D01*
X0005664Y0003268D01*
X0005527Y0003386D01*
X0005392Y0003508D01*
X0005261Y0003633D01*
X0005133Y0003761D01*
X0005008Y0003892D01*
X0004886Y0004027D01*
X0004768Y0004164D01*
X0004652Y0004304D01*
X0004541Y0004446D01*
X0004432Y0004592D01*
X0004328Y0004740D01*
X0004226Y0004890D01*
X0004129Y0005043D01*
X0004035Y0005198D01*
X0003945Y0005355D01*
X0003859Y0005515D01*
X0003777Y0005676D01*
X0003698Y0005839D01*
X0003624Y0006005D01*
X0003554Y0006172D01*
X0003487Y0006340D01*
X0003425Y0006511D01*
X0003367Y0006682D01*
X0003313Y0006855D01*
X0003263Y0007030D01*
X0003218Y0007205D01*
X0003177Y0007382D01*
X0003140Y0007559D01*
X0003107Y0007737D01*
X0003079Y0007916D01*
X0003055Y0008096D01*
X0003035Y0008276D01*
X0003020Y0008457D01*
X0003009Y0008638D01*
X0003002Y0008819D01*
X0003000Y0009000D01*
M02*
