G75*
%MOIN*%
%OFA0B0*%
%FSLAX25Y25*%
%IPPOS*%
%LPD*%
%AMOC8*
5,1,8,0,0,1.08239X$1,22.5*
%
%ADD10C,0.00500*%
%ADD11C,0.00600*%
%ADD12C,0.00800*%
%ADD13R,0.02000X0.02000*%
%ADD14C,0.00300*%
D10*
X0004167Y0016250D02*
X0006002Y0016250D01*
X0006920Y0017167D01*
X0006920Y0019002D01*
X0005085Y0019002D01*
X0006920Y0020837D02*
X0006002Y0021755D01*
X0004167Y0021755D01*
X0003250Y0020837D01*
X0003250Y0017167D01*
X0004167Y0016250D01*
X0008775Y0016250D02*
X0008775Y0021755D01*
X0012445Y0016250D01*
X0012445Y0021755D01*
X0014299Y0021755D02*
X0017052Y0021755D01*
X0017969Y0020837D01*
X0017969Y0017167D01*
X0017052Y0016250D01*
X0014299Y0016250D01*
X0014299Y0021755D01*
X0015350Y0026680D02*
X0016701Y0026680D01*
X0017152Y0027131D01*
X0017152Y0028031D01*
X0016701Y0028482D01*
X0017152Y0029627D02*
X0017152Y0030978D01*
X0016701Y0031428D01*
X0015800Y0031428D01*
X0015350Y0030978D01*
X0015350Y0029627D01*
X0015350Y0028482D02*
X0018052Y0028482D01*
X0017152Y0032492D02*
X0017152Y0033393D01*
X0017602Y0032942D02*
X0015800Y0032942D01*
X0015350Y0032492D01*
X0015350Y0034456D02*
X0015350Y0035357D01*
X0015350Y0034907D02*
X0017152Y0034907D01*
X0017152Y0035357D01*
X0018052Y0034907D02*
X0018503Y0034907D01*
X0019249Y0036339D02*
X0021952Y0036339D01*
X0021952Y0034988D01*
X0021501Y0034538D01*
X0020600Y0034538D01*
X0020150Y0034988D01*
X0020150Y0036339D01*
X0020150Y0037403D02*
X0020150Y0038303D01*
X0020150Y0037853D02*
X0021952Y0037853D01*
X0021952Y0038303D01*
X0022852Y0037853D02*
X0023303Y0037853D01*
X0022852Y0039448D02*
X0022852Y0041250D01*
X0022852Y0040349D02*
X0020150Y0040349D01*
X0018052Y0039899D02*
X0018052Y0040800D01*
X0017602Y0041250D01*
X0017152Y0041250D01*
X0016701Y0040800D01*
X0016701Y0039899D01*
X0016251Y0039448D01*
X0015800Y0039448D01*
X0015350Y0039899D01*
X0015350Y0040800D01*
X0015800Y0041250D01*
X0015800Y0038303D02*
X0015350Y0037853D01*
X0015800Y0037403D01*
X0015350Y0036952D01*
X0015800Y0036502D01*
X0017152Y0036502D01*
X0017152Y0038303D02*
X0015800Y0038303D01*
X0017602Y0039448D02*
X0018052Y0039899D01*
X0013703Y0037853D02*
X0013252Y0037853D01*
X0012352Y0037853D02*
X0010550Y0037853D01*
X0010550Y0038303D02*
X0010550Y0037403D01*
X0011000Y0036339D02*
X0010550Y0035889D01*
X0010550Y0034538D01*
X0010100Y0034538D02*
X0012352Y0034538D01*
X0012352Y0035889D01*
X0011901Y0036339D01*
X0011000Y0036339D01*
X0009649Y0034988D02*
X0010100Y0034538D01*
X0009649Y0034988D02*
X0009649Y0035438D01*
X0008452Y0034456D02*
X0008002Y0034907D01*
X0005750Y0034907D01*
X0007101Y0035357D02*
X0007101Y0034456D01*
X0007552Y0033393D02*
X0007552Y0032492D01*
X0008002Y0032942D02*
X0006200Y0032942D01*
X0005750Y0032492D01*
X0006651Y0036502D02*
X0006651Y0038303D01*
X0007101Y0038303D02*
X0007552Y0037853D01*
X0007552Y0036952D01*
X0007101Y0036502D01*
X0006651Y0036502D01*
X0005750Y0036952D02*
X0005750Y0037853D01*
X0006200Y0038303D01*
X0007101Y0038303D01*
X0005750Y0039448D02*
X0005750Y0041250D01*
X0008452Y0041250D01*
X0010550Y0041250D02*
X0013252Y0041250D01*
X0013252Y0039899D01*
X0012802Y0039448D01*
X0011901Y0039448D01*
X0011451Y0039899D01*
X0011451Y0041250D01*
X0011451Y0040349D02*
X0010550Y0039448D01*
X0012352Y0038303D02*
X0012352Y0037853D01*
X0011901Y0033393D02*
X0012352Y0032942D01*
X0012352Y0032041D01*
X0011901Y0031591D01*
X0010550Y0031591D01*
X0011000Y0029996D02*
X0010550Y0029545D01*
X0011000Y0029996D02*
X0012802Y0029996D01*
X0012352Y0030446D02*
X0012352Y0029545D01*
X0013252Y0033393D02*
X0010550Y0033393D01*
X0020742Y0021755D02*
X0019824Y0020837D01*
X0019824Y0017167D01*
X0020742Y0016250D01*
X0022577Y0016250D01*
X0023494Y0017167D01*
X0023494Y0019002D01*
X0021659Y0019002D01*
X0023494Y0020837D02*
X0022577Y0021755D01*
X0020742Y0021755D01*
X0025349Y0021755D02*
X0025349Y0016250D01*
X0029019Y0016250D02*
X0025349Y0021755D01*
X0029019Y0021755D02*
X0029019Y0016250D01*
X0030874Y0016250D02*
X0033626Y0016250D01*
X0034543Y0017167D01*
X0034543Y0020837D01*
X0033626Y0021755D01*
X0030874Y0021755D01*
X0030874Y0016250D01*
X0032783Y0026815D02*
X0034752Y0026815D01*
X0037316Y0021755D02*
X0036398Y0020837D01*
X0036398Y0017167D01*
X0037316Y0016250D01*
X0039151Y0016250D01*
X0040068Y0017167D01*
X0040068Y0019002D01*
X0038233Y0019002D01*
X0040068Y0020837D02*
X0039151Y0021755D01*
X0037316Y0021755D01*
X0032783Y0026815D02*
X0032783Y0028705D01*
X0041923Y0021755D02*
X0041923Y0016250D01*
X0045593Y0016250D02*
X0041923Y0021755D01*
X0045593Y0021755D02*
X0045593Y0016250D01*
X0047448Y0016250D02*
X0050200Y0016250D01*
X0051118Y0017167D01*
X0051118Y0020837D01*
X0050200Y0021755D01*
X0047448Y0021755D01*
X0047448Y0016250D01*
X0052972Y0017167D02*
X0053890Y0016250D01*
X0055725Y0016250D01*
X0056642Y0017167D01*
X0056642Y0019002D01*
X0054807Y0019002D01*
X0052972Y0020837D02*
X0053890Y0021755D01*
X0055725Y0021755D01*
X0056642Y0020837D01*
X0058497Y0021755D02*
X0062167Y0016250D01*
X0062167Y0021755D01*
X0064022Y0021755D02*
X0064022Y0016250D01*
X0066774Y0016250D01*
X0067692Y0017167D01*
X0067692Y0020837D01*
X0066774Y0021755D01*
X0064022Y0021755D01*
X0069547Y0020837D02*
X0069547Y0017167D01*
X0070464Y0016250D01*
X0072299Y0016250D01*
X0073216Y0017167D01*
X0073216Y0019002D01*
X0071381Y0019002D01*
X0069547Y0020837D02*
X0070464Y0021755D01*
X0072299Y0021755D01*
X0073216Y0020837D01*
X0075071Y0021755D02*
X0078741Y0016250D01*
X0078741Y0021755D01*
X0080596Y0021755D02*
X0083348Y0021755D01*
X0084266Y0020837D01*
X0084266Y0017167D01*
X0083348Y0016250D01*
X0080596Y0016250D01*
X0080596Y0021755D01*
X0075071Y0021755D02*
X0075071Y0016250D01*
X0074122Y0026815D02*
X0072154Y0026815D01*
X0074122Y0026815D02*
X0074122Y0030752D01*
X0074122Y0062248D02*
X0074122Y0066185D01*
X0072154Y0066185D01*
X0072154Y0066815D02*
X0074122Y0066815D01*
X0074122Y0070752D01*
X0074122Y0102248D02*
X0074122Y0106185D01*
X0072154Y0106185D01*
X0072154Y0108783D02*
X0074122Y0108783D01*
X0074122Y0110752D01*
X0074122Y0142248D02*
X0074122Y0144217D01*
X0072154Y0144217D01*
X0072154Y0146283D02*
X0074122Y0146283D01*
X0074122Y0148252D01*
X0074122Y0179748D02*
X0074122Y0181717D01*
X0072154Y0181717D01*
X0072299Y0186250D02*
X0070464Y0186250D01*
X0069547Y0187167D01*
X0069547Y0190837D01*
X0070464Y0191755D01*
X0072299Y0191755D01*
X0073216Y0190837D01*
X0073216Y0189002D02*
X0071381Y0189002D01*
X0073216Y0187167D02*
X0072299Y0186250D01*
X0073216Y0187167D02*
X0073216Y0189002D01*
X0075071Y0186250D02*
X0075071Y0191755D01*
X0078741Y0186250D01*
X0078741Y0191755D01*
X0080596Y0191755D02*
X0083348Y0191755D01*
X0084266Y0190837D01*
X0084266Y0187167D01*
X0083348Y0186250D01*
X0080596Y0186250D01*
X0080596Y0191755D01*
X0067692Y0190837D02*
X0067692Y0187167D01*
X0066774Y0186250D01*
X0064022Y0186250D01*
X0064022Y0191755D01*
X0066774Y0191755D01*
X0067692Y0190837D01*
X0062167Y0191755D02*
X0062167Y0186250D01*
X0058497Y0191755D01*
X0058497Y0186250D01*
X0056642Y0187167D02*
X0056642Y0189002D01*
X0054807Y0189002D01*
X0052972Y0187167D02*
X0053890Y0186250D01*
X0055725Y0186250D01*
X0056642Y0187167D01*
X0056642Y0190837D02*
X0055725Y0191755D01*
X0053890Y0191755D01*
X0052972Y0190837D01*
X0052972Y0187167D01*
X0051118Y0187167D02*
X0051118Y0190837D01*
X0050200Y0191755D01*
X0047448Y0191755D01*
X0047448Y0186250D01*
X0050200Y0186250D01*
X0051118Y0187167D01*
X0045593Y0186250D02*
X0045593Y0191755D01*
X0041923Y0191755D02*
X0045593Y0186250D01*
X0041923Y0186250D02*
X0041923Y0191755D01*
X0040068Y0190837D02*
X0039151Y0191755D01*
X0037316Y0191755D01*
X0036398Y0190837D01*
X0036398Y0187167D01*
X0037316Y0186250D01*
X0039151Y0186250D01*
X0040068Y0187167D01*
X0040068Y0189002D01*
X0038233Y0189002D01*
X0034752Y0181717D02*
X0032783Y0181717D01*
X0032783Y0179748D01*
X0033626Y0186250D02*
X0030874Y0186250D01*
X0030874Y0191755D01*
X0033626Y0191755D01*
X0034543Y0190837D01*
X0034543Y0187167D01*
X0033626Y0186250D01*
X0029019Y0186250D02*
X0029019Y0191755D01*
X0025349Y0191755D02*
X0029019Y0186250D01*
X0025349Y0186250D02*
X0025349Y0191755D01*
X0023494Y0190837D02*
X0022577Y0191755D01*
X0020742Y0191755D01*
X0019824Y0190837D01*
X0019824Y0187167D01*
X0020742Y0186250D01*
X0022577Y0186250D01*
X0023494Y0187167D01*
X0023494Y0189002D01*
X0021659Y0189002D01*
X0017969Y0187167D02*
X0017969Y0190837D01*
X0017052Y0191755D01*
X0014299Y0191755D01*
X0014299Y0186250D01*
X0017052Y0186250D01*
X0017969Y0187167D01*
X0017750Y0179616D02*
X0017750Y0178715D01*
X0017750Y0179166D02*
X0015048Y0179166D01*
X0015048Y0178715D01*
X0015048Y0177201D02*
X0017750Y0177201D01*
X0017750Y0176751D02*
X0017750Y0177652D01*
X0016849Y0175606D02*
X0016849Y0173804D01*
X0016399Y0173804D02*
X0015948Y0174255D01*
X0015948Y0175155D01*
X0016399Y0175606D01*
X0016849Y0175606D01*
X0017750Y0175155D02*
X0017750Y0174255D01*
X0017300Y0173804D01*
X0016399Y0173804D01*
X0015948Y0172659D02*
X0017300Y0172659D01*
X0017750Y0172209D01*
X0017300Y0171759D01*
X0017750Y0171308D01*
X0017300Y0170858D01*
X0015948Y0170858D01*
X0015948Y0169794D02*
X0015948Y0168893D01*
X0015498Y0169344D02*
X0017300Y0169344D01*
X0017750Y0169794D01*
X0017750Y0167830D02*
X0017750Y0166929D01*
X0017750Y0167379D02*
X0015948Y0167379D01*
X0015948Y0166929D01*
X0015048Y0167379D02*
X0014597Y0167379D01*
X0016399Y0165784D02*
X0015948Y0165334D01*
X0015948Y0164433D01*
X0016399Y0163983D01*
X0015048Y0163983D02*
X0017750Y0163983D01*
X0017750Y0162838D02*
X0015048Y0162838D01*
X0015048Y0161036D02*
X0017750Y0161036D01*
X0016849Y0161937D01*
X0017750Y0162838D01*
X0017750Y0165784D02*
X0016399Y0165784D01*
X0012750Y0163983D02*
X0010948Y0163983D01*
X0010948Y0164883D02*
X0010948Y0165334D01*
X0010948Y0164883D02*
X0011849Y0163983D01*
X0011849Y0162838D02*
X0011849Y0161036D01*
X0011399Y0161036D02*
X0012300Y0161036D01*
X0012750Y0161486D01*
X0012750Y0162387D01*
X0011849Y0162838D02*
X0011399Y0162838D01*
X0010948Y0162387D01*
X0010948Y0161486D01*
X0011399Y0161036D01*
X0010948Y0159522D02*
X0012750Y0159522D01*
X0012750Y0159072D02*
X0012750Y0159972D01*
X0010948Y0157927D02*
X0012750Y0157026D01*
X0010948Y0156125D01*
X0010948Y0154611D02*
X0012750Y0154611D01*
X0012750Y0154161D02*
X0012750Y0155062D01*
X0012750Y0153097D02*
X0012750Y0152197D01*
X0012750Y0152647D02*
X0010048Y0152647D01*
X0010048Y0152197D01*
X0010498Y0151052D02*
X0010048Y0150601D01*
X0010048Y0149700D01*
X0010498Y0149250D01*
X0012300Y0149250D01*
X0012750Y0149700D01*
X0012750Y0150601D01*
X0012300Y0151052D01*
X0010498Y0151052D01*
X0010948Y0154161D02*
X0010948Y0154611D01*
X0010048Y0154611D02*
X0009597Y0154611D01*
X0007750Y0153998D02*
X0007750Y0152647D01*
X0007300Y0152197D01*
X0006399Y0152197D01*
X0005948Y0152647D01*
X0005948Y0153998D01*
X0006399Y0155143D02*
X0006399Y0156945D01*
X0005948Y0158090D02*
X0005948Y0159441D01*
X0006399Y0159891D01*
X0007300Y0159891D01*
X0007750Y0159441D01*
X0007750Y0158090D01*
X0005048Y0158090D01*
X0005948Y0161036D02*
X0007300Y0161036D01*
X0007750Y0161486D01*
X0007750Y0162838D01*
X0008200Y0162838D02*
X0008651Y0162387D01*
X0008651Y0161937D01*
X0008200Y0162838D02*
X0005948Y0162838D01*
X0006399Y0163983D02*
X0006399Y0165784D01*
X0006399Y0166929D02*
X0005948Y0167379D01*
X0005948Y0168731D01*
X0006849Y0168280D02*
X0006849Y0167379D01*
X0006399Y0166929D01*
X0007750Y0166929D02*
X0007750Y0168280D01*
X0007300Y0168731D01*
X0006849Y0168280D01*
X0007300Y0169876D02*
X0006849Y0170326D01*
X0006849Y0171677D01*
X0006399Y0171677D02*
X0007750Y0171677D01*
X0007750Y0170326D01*
X0007300Y0169876D01*
X0005948Y0171227D02*
X0006399Y0171677D01*
X0005948Y0171227D02*
X0005948Y0170326D01*
X0009597Y0172781D02*
X0010048Y0172781D01*
X0010948Y0172781D02*
X0010948Y0172331D01*
X0010948Y0172781D02*
X0012750Y0172781D01*
X0012750Y0172331D02*
X0012750Y0173232D01*
X0012750Y0174295D02*
X0012750Y0175196D01*
X0012750Y0174746D02*
X0010048Y0174746D01*
X0010048Y0174295D01*
X0010048Y0176260D02*
X0010048Y0176710D01*
X0012750Y0176710D01*
X0012750Y0176260D02*
X0012750Y0177161D01*
X0012300Y0178224D02*
X0012750Y0178674D01*
X0012750Y0179575D01*
X0011849Y0180026D02*
X0011849Y0178224D01*
X0011399Y0178224D02*
X0012300Y0178224D01*
X0011399Y0178224D02*
X0010948Y0178674D01*
X0010948Y0179575D01*
X0011399Y0180026D01*
X0011849Y0180026D01*
X0010948Y0181171D02*
X0010948Y0182071D01*
X0010498Y0181621D02*
X0012300Y0181621D01*
X0012750Y0182071D01*
X0012445Y0186250D02*
X0012445Y0191755D01*
X0008775Y0191755D02*
X0012445Y0186250D01*
X0015048Y0177201D02*
X0015048Y0176751D01*
X0012300Y0171186D02*
X0012750Y0170736D01*
X0012750Y0169835D01*
X0012300Y0169385D01*
X0010498Y0169385D01*
X0010048Y0169835D01*
X0010048Y0170736D01*
X0010498Y0171186D01*
X0011399Y0171186D02*
X0011399Y0170285D01*
X0011399Y0171186D02*
X0012300Y0171186D01*
X0010948Y0159522D02*
X0010948Y0159072D01*
X0010048Y0159522D02*
X0009597Y0159522D01*
X0007750Y0151052D02*
X0007750Y0149700D01*
X0007300Y0149250D01*
X0006399Y0149250D01*
X0005948Y0149700D01*
X0005948Y0151052D01*
X0004667Y0133012D02*
X0003750Y0132095D01*
X0003750Y0130260D01*
X0004667Y0129343D01*
X0005585Y0129343D01*
X0006502Y0130260D01*
X0006502Y0132095D01*
X0007420Y0133012D01*
X0008337Y0133012D01*
X0009255Y0132095D01*
X0009255Y0130260D01*
X0008337Y0129343D01*
X0009255Y0123012D02*
X0009255Y0119343D01*
X0009255Y0121177D02*
X0003750Y0121177D01*
X0004667Y0113012D02*
X0003750Y0112095D01*
X0003750Y0110260D01*
X0004667Y0109343D01*
X0005585Y0109343D01*
X0006502Y0110260D01*
X0006502Y0112095D01*
X0007420Y0113012D01*
X0008337Y0113012D01*
X0009255Y0112095D01*
X0009255Y0110260D01*
X0008337Y0109343D01*
X0009255Y0103012D02*
X0009255Y0099343D01*
X0009255Y0101177D02*
X0003750Y0101177D01*
X0003750Y0093012D02*
X0009255Y0093012D01*
X0009255Y0090260D01*
X0008337Y0089343D01*
X0006502Y0089343D01*
X0005585Y0090260D01*
X0005585Y0093012D01*
X0005585Y0091177D02*
X0003750Y0089343D01*
X0003750Y0083012D02*
X0003750Y0079343D01*
X0003750Y0083012D02*
X0009255Y0083012D01*
X0009255Y0073012D02*
X0009255Y0070260D01*
X0008337Y0069343D01*
X0006502Y0069343D01*
X0005585Y0070260D01*
X0005585Y0073012D01*
X0005585Y0071177D02*
X0003750Y0069343D01*
X0003750Y0073012D02*
X0009255Y0073012D01*
X0009255Y0063012D02*
X0003750Y0063012D01*
X0003750Y0059343D01*
X0032783Y0064217D02*
X0032783Y0066185D01*
X0034752Y0066185D01*
X0034752Y0066815D02*
X0032783Y0066815D01*
X0032783Y0068705D01*
X0032783Y0104217D02*
X0032783Y0106185D01*
X0034752Y0106185D01*
X0034752Y0108783D02*
X0032783Y0108783D01*
X0032783Y0110752D01*
X0032783Y0142248D02*
X0032783Y0144217D01*
X0034752Y0144217D01*
X0034752Y0146283D02*
X0032783Y0146283D01*
X0032783Y0148252D01*
X0017750Y0150151D02*
X0015048Y0150151D01*
X0015048Y0149250D02*
X0015048Y0151052D01*
X0016399Y0152197D02*
X0015948Y0152647D01*
X0015948Y0153548D01*
X0016399Y0153998D01*
X0017300Y0153998D01*
X0017750Y0153548D01*
X0017750Y0152647D01*
X0017300Y0152197D01*
X0016399Y0152197D01*
X0015948Y0155143D02*
X0015948Y0155593D01*
X0016399Y0156044D01*
X0015948Y0156494D01*
X0016399Y0156945D01*
X0017750Y0156945D01*
X0017750Y0156044D02*
X0016399Y0156044D01*
X0015948Y0155143D02*
X0017750Y0155143D01*
X0008775Y0186250D02*
X0008775Y0191755D01*
X0006920Y0190837D02*
X0006002Y0191755D01*
X0004167Y0191755D01*
X0003250Y0190837D01*
X0003250Y0187167D01*
X0004167Y0186250D01*
X0006002Y0186250D01*
X0006920Y0187167D01*
X0006920Y0189002D01*
X0005085Y0189002D01*
X0039907Y0164000D02*
X0039910Y0164260D01*
X0039920Y0164520D01*
X0039936Y0164779D01*
X0039958Y0165038D01*
X0039987Y0165297D01*
X0040022Y0165554D01*
X0040063Y0165811D01*
X0040111Y0166067D01*
X0040164Y0166321D01*
X0040224Y0166574D01*
X0040291Y0166825D01*
X0040363Y0167075D01*
X0040442Y0167323D01*
X0040526Y0167569D01*
X0040617Y0167812D01*
X0040713Y0168054D01*
X0040816Y0168293D01*
X0040924Y0168529D01*
X0041038Y0168763D01*
X0041158Y0168994D01*
X0041283Y0169221D01*
X0041414Y0169446D01*
X0041550Y0169667D01*
X0041692Y0169885D01*
X0041839Y0170100D01*
X0041992Y0170310D01*
X0042149Y0170517D01*
X0042312Y0170720D01*
X0042479Y0170919D01*
X0042651Y0171114D01*
X0042828Y0171304D01*
X0043010Y0171490D01*
X0043196Y0171672D01*
X0043386Y0171849D01*
X0043581Y0172021D01*
X0043780Y0172188D01*
X0043983Y0172351D01*
X0044190Y0172508D01*
X0044400Y0172661D01*
X0044615Y0172808D01*
X0044833Y0172950D01*
X0045054Y0173086D01*
X0045279Y0173217D01*
X0045506Y0173342D01*
X0045737Y0173462D01*
X0045971Y0173576D01*
X0046207Y0173684D01*
X0046446Y0173787D01*
X0046688Y0173883D01*
X0046931Y0173974D01*
X0047177Y0174058D01*
X0047425Y0174137D01*
X0047675Y0174209D01*
X0047926Y0174276D01*
X0048179Y0174336D01*
X0048433Y0174389D01*
X0048689Y0174437D01*
X0048946Y0174478D01*
X0049203Y0174513D01*
X0049462Y0174542D01*
X0049721Y0174564D01*
X0049980Y0174580D01*
X0050240Y0174590D01*
X0050500Y0174593D01*
X0050760Y0174590D01*
X0051020Y0174580D01*
X0051279Y0174564D01*
X0051538Y0174542D01*
X0051797Y0174513D01*
X0052054Y0174478D01*
X0052311Y0174437D01*
X0052567Y0174389D01*
X0052821Y0174336D01*
X0053074Y0174276D01*
X0053325Y0174209D01*
X0053575Y0174137D01*
X0053823Y0174058D01*
X0054069Y0173974D01*
X0054312Y0173883D01*
X0054554Y0173787D01*
X0054793Y0173684D01*
X0055029Y0173576D01*
X0055263Y0173462D01*
X0055494Y0173342D01*
X0055721Y0173217D01*
X0055946Y0173086D01*
X0056167Y0172950D01*
X0056385Y0172808D01*
X0056600Y0172661D01*
X0056810Y0172508D01*
X0057017Y0172351D01*
X0057220Y0172188D01*
X0057419Y0172021D01*
X0057614Y0171849D01*
X0057804Y0171672D01*
X0057990Y0171490D01*
X0058172Y0171304D01*
X0058349Y0171114D01*
X0058521Y0170919D01*
X0058688Y0170720D01*
X0058851Y0170517D01*
X0059008Y0170310D01*
X0059161Y0170100D01*
X0059308Y0169885D01*
X0059450Y0169667D01*
X0059586Y0169446D01*
X0059717Y0169221D01*
X0059842Y0168994D01*
X0059962Y0168763D01*
X0060076Y0168529D01*
X0060184Y0168293D01*
X0060287Y0168054D01*
X0060383Y0167812D01*
X0060474Y0167569D01*
X0060558Y0167323D01*
X0060637Y0167075D01*
X0060709Y0166825D01*
X0060776Y0166574D01*
X0060836Y0166321D01*
X0060889Y0166067D01*
X0060937Y0165811D01*
X0060978Y0165554D01*
X0061013Y0165297D01*
X0061042Y0165038D01*
X0061064Y0164779D01*
X0061080Y0164520D01*
X0061090Y0164260D01*
X0061093Y0164000D01*
X0061090Y0163740D01*
X0061080Y0163480D01*
X0061064Y0163221D01*
X0061042Y0162962D01*
X0061013Y0162703D01*
X0060978Y0162446D01*
X0060937Y0162189D01*
X0060889Y0161933D01*
X0060836Y0161679D01*
X0060776Y0161426D01*
X0060709Y0161175D01*
X0060637Y0160925D01*
X0060558Y0160677D01*
X0060474Y0160431D01*
X0060383Y0160188D01*
X0060287Y0159946D01*
X0060184Y0159707D01*
X0060076Y0159471D01*
X0059962Y0159237D01*
X0059842Y0159006D01*
X0059717Y0158779D01*
X0059586Y0158554D01*
X0059450Y0158333D01*
X0059308Y0158115D01*
X0059161Y0157900D01*
X0059008Y0157690D01*
X0058851Y0157483D01*
X0058688Y0157280D01*
X0058521Y0157081D01*
X0058349Y0156886D01*
X0058172Y0156696D01*
X0057990Y0156510D01*
X0057804Y0156328D01*
X0057614Y0156151D01*
X0057419Y0155979D01*
X0057220Y0155812D01*
X0057017Y0155649D01*
X0056810Y0155492D01*
X0056600Y0155339D01*
X0056385Y0155192D01*
X0056167Y0155050D01*
X0055946Y0154914D01*
X0055721Y0154783D01*
X0055494Y0154658D01*
X0055263Y0154538D01*
X0055029Y0154424D01*
X0054793Y0154316D01*
X0054554Y0154213D01*
X0054312Y0154117D01*
X0054069Y0154026D01*
X0053823Y0153942D01*
X0053575Y0153863D01*
X0053325Y0153791D01*
X0053074Y0153724D01*
X0052821Y0153664D01*
X0052567Y0153611D01*
X0052311Y0153563D01*
X0052054Y0153522D01*
X0051797Y0153487D01*
X0051538Y0153458D01*
X0051279Y0153436D01*
X0051020Y0153420D01*
X0050760Y0153410D01*
X0050500Y0153407D01*
X0050240Y0153410D01*
X0049980Y0153420D01*
X0049721Y0153436D01*
X0049462Y0153458D01*
X0049203Y0153487D01*
X0048946Y0153522D01*
X0048689Y0153563D01*
X0048433Y0153611D01*
X0048179Y0153664D01*
X0047926Y0153724D01*
X0047675Y0153791D01*
X0047425Y0153863D01*
X0047177Y0153942D01*
X0046931Y0154026D01*
X0046688Y0154117D01*
X0046446Y0154213D01*
X0046207Y0154316D01*
X0045971Y0154424D01*
X0045737Y0154538D01*
X0045506Y0154658D01*
X0045279Y0154783D01*
X0045054Y0154914D01*
X0044833Y0155050D01*
X0044615Y0155192D01*
X0044400Y0155339D01*
X0044190Y0155492D01*
X0043983Y0155649D01*
X0043780Y0155812D01*
X0043581Y0155979D01*
X0043386Y0156151D01*
X0043196Y0156328D01*
X0043010Y0156510D01*
X0042828Y0156696D01*
X0042651Y0156886D01*
X0042479Y0157081D01*
X0042312Y0157280D01*
X0042149Y0157483D01*
X0041992Y0157690D01*
X0041839Y0157900D01*
X0041692Y0158115D01*
X0041550Y0158333D01*
X0041414Y0158554D01*
X0041283Y0158779D01*
X0041158Y0159006D01*
X0041038Y0159237D01*
X0040924Y0159471D01*
X0040816Y0159707D01*
X0040713Y0159946D01*
X0040617Y0160188D01*
X0040526Y0160431D01*
X0040442Y0160677D01*
X0040363Y0160925D01*
X0040291Y0161175D01*
X0040224Y0161426D01*
X0040164Y0161679D01*
X0040111Y0161933D01*
X0040063Y0162189D01*
X0040022Y0162446D01*
X0039987Y0162703D01*
X0039958Y0162962D01*
X0039936Y0163221D01*
X0039920Y0163480D01*
X0039910Y0163740D01*
X0039907Y0164000D01*
X0039907Y0126500D02*
X0039910Y0126760D01*
X0039920Y0127020D01*
X0039936Y0127279D01*
X0039958Y0127538D01*
X0039987Y0127797D01*
X0040022Y0128054D01*
X0040063Y0128311D01*
X0040111Y0128567D01*
X0040164Y0128821D01*
X0040224Y0129074D01*
X0040291Y0129325D01*
X0040363Y0129575D01*
X0040442Y0129823D01*
X0040526Y0130069D01*
X0040617Y0130312D01*
X0040713Y0130554D01*
X0040816Y0130793D01*
X0040924Y0131029D01*
X0041038Y0131263D01*
X0041158Y0131494D01*
X0041283Y0131721D01*
X0041414Y0131946D01*
X0041550Y0132167D01*
X0041692Y0132385D01*
X0041839Y0132600D01*
X0041992Y0132810D01*
X0042149Y0133017D01*
X0042312Y0133220D01*
X0042479Y0133419D01*
X0042651Y0133614D01*
X0042828Y0133804D01*
X0043010Y0133990D01*
X0043196Y0134172D01*
X0043386Y0134349D01*
X0043581Y0134521D01*
X0043780Y0134688D01*
X0043983Y0134851D01*
X0044190Y0135008D01*
X0044400Y0135161D01*
X0044615Y0135308D01*
X0044833Y0135450D01*
X0045054Y0135586D01*
X0045279Y0135717D01*
X0045506Y0135842D01*
X0045737Y0135962D01*
X0045971Y0136076D01*
X0046207Y0136184D01*
X0046446Y0136287D01*
X0046688Y0136383D01*
X0046931Y0136474D01*
X0047177Y0136558D01*
X0047425Y0136637D01*
X0047675Y0136709D01*
X0047926Y0136776D01*
X0048179Y0136836D01*
X0048433Y0136889D01*
X0048689Y0136937D01*
X0048946Y0136978D01*
X0049203Y0137013D01*
X0049462Y0137042D01*
X0049721Y0137064D01*
X0049980Y0137080D01*
X0050240Y0137090D01*
X0050500Y0137093D01*
X0050760Y0137090D01*
X0051020Y0137080D01*
X0051279Y0137064D01*
X0051538Y0137042D01*
X0051797Y0137013D01*
X0052054Y0136978D01*
X0052311Y0136937D01*
X0052567Y0136889D01*
X0052821Y0136836D01*
X0053074Y0136776D01*
X0053325Y0136709D01*
X0053575Y0136637D01*
X0053823Y0136558D01*
X0054069Y0136474D01*
X0054312Y0136383D01*
X0054554Y0136287D01*
X0054793Y0136184D01*
X0055029Y0136076D01*
X0055263Y0135962D01*
X0055494Y0135842D01*
X0055721Y0135717D01*
X0055946Y0135586D01*
X0056167Y0135450D01*
X0056385Y0135308D01*
X0056600Y0135161D01*
X0056810Y0135008D01*
X0057017Y0134851D01*
X0057220Y0134688D01*
X0057419Y0134521D01*
X0057614Y0134349D01*
X0057804Y0134172D01*
X0057990Y0133990D01*
X0058172Y0133804D01*
X0058349Y0133614D01*
X0058521Y0133419D01*
X0058688Y0133220D01*
X0058851Y0133017D01*
X0059008Y0132810D01*
X0059161Y0132600D01*
X0059308Y0132385D01*
X0059450Y0132167D01*
X0059586Y0131946D01*
X0059717Y0131721D01*
X0059842Y0131494D01*
X0059962Y0131263D01*
X0060076Y0131029D01*
X0060184Y0130793D01*
X0060287Y0130554D01*
X0060383Y0130312D01*
X0060474Y0130069D01*
X0060558Y0129823D01*
X0060637Y0129575D01*
X0060709Y0129325D01*
X0060776Y0129074D01*
X0060836Y0128821D01*
X0060889Y0128567D01*
X0060937Y0128311D01*
X0060978Y0128054D01*
X0061013Y0127797D01*
X0061042Y0127538D01*
X0061064Y0127279D01*
X0061080Y0127020D01*
X0061090Y0126760D01*
X0061093Y0126500D01*
X0061090Y0126240D01*
X0061080Y0125980D01*
X0061064Y0125721D01*
X0061042Y0125462D01*
X0061013Y0125203D01*
X0060978Y0124946D01*
X0060937Y0124689D01*
X0060889Y0124433D01*
X0060836Y0124179D01*
X0060776Y0123926D01*
X0060709Y0123675D01*
X0060637Y0123425D01*
X0060558Y0123177D01*
X0060474Y0122931D01*
X0060383Y0122688D01*
X0060287Y0122446D01*
X0060184Y0122207D01*
X0060076Y0121971D01*
X0059962Y0121737D01*
X0059842Y0121506D01*
X0059717Y0121279D01*
X0059586Y0121054D01*
X0059450Y0120833D01*
X0059308Y0120615D01*
X0059161Y0120400D01*
X0059008Y0120190D01*
X0058851Y0119983D01*
X0058688Y0119780D01*
X0058521Y0119581D01*
X0058349Y0119386D01*
X0058172Y0119196D01*
X0057990Y0119010D01*
X0057804Y0118828D01*
X0057614Y0118651D01*
X0057419Y0118479D01*
X0057220Y0118312D01*
X0057017Y0118149D01*
X0056810Y0117992D01*
X0056600Y0117839D01*
X0056385Y0117692D01*
X0056167Y0117550D01*
X0055946Y0117414D01*
X0055721Y0117283D01*
X0055494Y0117158D01*
X0055263Y0117038D01*
X0055029Y0116924D01*
X0054793Y0116816D01*
X0054554Y0116713D01*
X0054312Y0116617D01*
X0054069Y0116526D01*
X0053823Y0116442D01*
X0053575Y0116363D01*
X0053325Y0116291D01*
X0053074Y0116224D01*
X0052821Y0116164D01*
X0052567Y0116111D01*
X0052311Y0116063D01*
X0052054Y0116022D01*
X0051797Y0115987D01*
X0051538Y0115958D01*
X0051279Y0115936D01*
X0051020Y0115920D01*
X0050760Y0115910D01*
X0050500Y0115907D01*
X0050240Y0115910D01*
X0049980Y0115920D01*
X0049721Y0115936D01*
X0049462Y0115958D01*
X0049203Y0115987D01*
X0048946Y0116022D01*
X0048689Y0116063D01*
X0048433Y0116111D01*
X0048179Y0116164D01*
X0047926Y0116224D01*
X0047675Y0116291D01*
X0047425Y0116363D01*
X0047177Y0116442D01*
X0046931Y0116526D01*
X0046688Y0116617D01*
X0046446Y0116713D01*
X0046207Y0116816D01*
X0045971Y0116924D01*
X0045737Y0117038D01*
X0045506Y0117158D01*
X0045279Y0117283D01*
X0045054Y0117414D01*
X0044833Y0117550D01*
X0044615Y0117692D01*
X0044400Y0117839D01*
X0044190Y0117992D01*
X0043983Y0118149D01*
X0043780Y0118312D01*
X0043581Y0118479D01*
X0043386Y0118651D01*
X0043196Y0118828D01*
X0043010Y0119010D01*
X0042828Y0119196D01*
X0042651Y0119386D01*
X0042479Y0119581D01*
X0042312Y0119780D01*
X0042149Y0119983D01*
X0041992Y0120190D01*
X0041839Y0120400D01*
X0041692Y0120615D01*
X0041550Y0120833D01*
X0041414Y0121054D01*
X0041283Y0121279D01*
X0041158Y0121506D01*
X0041038Y0121737D01*
X0040924Y0121971D01*
X0040816Y0122207D01*
X0040713Y0122446D01*
X0040617Y0122688D01*
X0040526Y0122931D01*
X0040442Y0123177D01*
X0040363Y0123425D01*
X0040291Y0123675D01*
X0040224Y0123926D01*
X0040164Y0124179D01*
X0040111Y0124433D01*
X0040063Y0124689D01*
X0040022Y0124946D01*
X0039987Y0125203D01*
X0039958Y0125462D01*
X0039936Y0125721D01*
X0039920Y0125980D01*
X0039910Y0126240D01*
X0039907Y0126500D01*
X0039907Y0086500D02*
X0039910Y0086760D01*
X0039920Y0087020D01*
X0039936Y0087279D01*
X0039958Y0087538D01*
X0039987Y0087797D01*
X0040022Y0088054D01*
X0040063Y0088311D01*
X0040111Y0088567D01*
X0040164Y0088821D01*
X0040224Y0089074D01*
X0040291Y0089325D01*
X0040363Y0089575D01*
X0040442Y0089823D01*
X0040526Y0090069D01*
X0040617Y0090312D01*
X0040713Y0090554D01*
X0040816Y0090793D01*
X0040924Y0091029D01*
X0041038Y0091263D01*
X0041158Y0091494D01*
X0041283Y0091721D01*
X0041414Y0091946D01*
X0041550Y0092167D01*
X0041692Y0092385D01*
X0041839Y0092600D01*
X0041992Y0092810D01*
X0042149Y0093017D01*
X0042312Y0093220D01*
X0042479Y0093419D01*
X0042651Y0093614D01*
X0042828Y0093804D01*
X0043010Y0093990D01*
X0043196Y0094172D01*
X0043386Y0094349D01*
X0043581Y0094521D01*
X0043780Y0094688D01*
X0043983Y0094851D01*
X0044190Y0095008D01*
X0044400Y0095161D01*
X0044615Y0095308D01*
X0044833Y0095450D01*
X0045054Y0095586D01*
X0045279Y0095717D01*
X0045506Y0095842D01*
X0045737Y0095962D01*
X0045971Y0096076D01*
X0046207Y0096184D01*
X0046446Y0096287D01*
X0046688Y0096383D01*
X0046931Y0096474D01*
X0047177Y0096558D01*
X0047425Y0096637D01*
X0047675Y0096709D01*
X0047926Y0096776D01*
X0048179Y0096836D01*
X0048433Y0096889D01*
X0048689Y0096937D01*
X0048946Y0096978D01*
X0049203Y0097013D01*
X0049462Y0097042D01*
X0049721Y0097064D01*
X0049980Y0097080D01*
X0050240Y0097090D01*
X0050500Y0097093D01*
X0050760Y0097090D01*
X0051020Y0097080D01*
X0051279Y0097064D01*
X0051538Y0097042D01*
X0051797Y0097013D01*
X0052054Y0096978D01*
X0052311Y0096937D01*
X0052567Y0096889D01*
X0052821Y0096836D01*
X0053074Y0096776D01*
X0053325Y0096709D01*
X0053575Y0096637D01*
X0053823Y0096558D01*
X0054069Y0096474D01*
X0054312Y0096383D01*
X0054554Y0096287D01*
X0054793Y0096184D01*
X0055029Y0096076D01*
X0055263Y0095962D01*
X0055494Y0095842D01*
X0055721Y0095717D01*
X0055946Y0095586D01*
X0056167Y0095450D01*
X0056385Y0095308D01*
X0056600Y0095161D01*
X0056810Y0095008D01*
X0057017Y0094851D01*
X0057220Y0094688D01*
X0057419Y0094521D01*
X0057614Y0094349D01*
X0057804Y0094172D01*
X0057990Y0093990D01*
X0058172Y0093804D01*
X0058349Y0093614D01*
X0058521Y0093419D01*
X0058688Y0093220D01*
X0058851Y0093017D01*
X0059008Y0092810D01*
X0059161Y0092600D01*
X0059308Y0092385D01*
X0059450Y0092167D01*
X0059586Y0091946D01*
X0059717Y0091721D01*
X0059842Y0091494D01*
X0059962Y0091263D01*
X0060076Y0091029D01*
X0060184Y0090793D01*
X0060287Y0090554D01*
X0060383Y0090312D01*
X0060474Y0090069D01*
X0060558Y0089823D01*
X0060637Y0089575D01*
X0060709Y0089325D01*
X0060776Y0089074D01*
X0060836Y0088821D01*
X0060889Y0088567D01*
X0060937Y0088311D01*
X0060978Y0088054D01*
X0061013Y0087797D01*
X0061042Y0087538D01*
X0061064Y0087279D01*
X0061080Y0087020D01*
X0061090Y0086760D01*
X0061093Y0086500D01*
X0061090Y0086240D01*
X0061080Y0085980D01*
X0061064Y0085721D01*
X0061042Y0085462D01*
X0061013Y0085203D01*
X0060978Y0084946D01*
X0060937Y0084689D01*
X0060889Y0084433D01*
X0060836Y0084179D01*
X0060776Y0083926D01*
X0060709Y0083675D01*
X0060637Y0083425D01*
X0060558Y0083177D01*
X0060474Y0082931D01*
X0060383Y0082688D01*
X0060287Y0082446D01*
X0060184Y0082207D01*
X0060076Y0081971D01*
X0059962Y0081737D01*
X0059842Y0081506D01*
X0059717Y0081279D01*
X0059586Y0081054D01*
X0059450Y0080833D01*
X0059308Y0080615D01*
X0059161Y0080400D01*
X0059008Y0080190D01*
X0058851Y0079983D01*
X0058688Y0079780D01*
X0058521Y0079581D01*
X0058349Y0079386D01*
X0058172Y0079196D01*
X0057990Y0079010D01*
X0057804Y0078828D01*
X0057614Y0078651D01*
X0057419Y0078479D01*
X0057220Y0078312D01*
X0057017Y0078149D01*
X0056810Y0077992D01*
X0056600Y0077839D01*
X0056385Y0077692D01*
X0056167Y0077550D01*
X0055946Y0077414D01*
X0055721Y0077283D01*
X0055494Y0077158D01*
X0055263Y0077038D01*
X0055029Y0076924D01*
X0054793Y0076816D01*
X0054554Y0076713D01*
X0054312Y0076617D01*
X0054069Y0076526D01*
X0053823Y0076442D01*
X0053575Y0076363D01*
X0053325Y0076291D01*
X0053074Y0076224D01*
X0052821Y0076164D01*
X0052567Y0076111D01*
X0052311Y0076063D01*
X0052054Y0076022D01*
X0051797Y0075987D01*
X0051538Y0075958D01*
X0051279Y0075936D01*
X0051020Y0075920D01*
X0050760Y0075910D01*
X0050500Y0075907D01*
X0050240Y0075910D01*
X0049980Y0075920D01*
X0049721Y0075936D01*
X0049462Y0075958D01*
X0049203Y0075987D01*
X0048946Y0076022D01*
X0048689Y0076063D01*
X0048433Y0076111D01*
X0048179Y0076164D01*
X0047926Y0076224D01*
X0047675Y0076291D01*
X0047425Y0076363D01*
X0047177Y0076442D01*
X0046931Y0076526D01*
X0046688Y0076617D01*
X0046446Y0076713D01*
X0046207Y0076816D01*
X0045971Y0076924D01*
X0045737Y0077038D01*
X0045506Y0077158D01*
X0045279Y0077283D01*
X0045054Y0077414D01*
X0044833Y0077550D01*
X0044615Y0077692D01*
X0044400Y0077839D01*
X0044190Y0077992D01*
X0043983Y0078149D01*
X0043780Y0078312D01*
X0043581Y0078479D01*
X0043386Y0078651D01*
X0043196Y0078828D01*
X0043010Y0079010D01*
X0042828Y0079196D01*
X0042651Y0079386D01*
X0042479Y0079581D01*
X0042312Y0079780D01*
X0042149Y0079983D01*
X0041992Y0080190D01*
X0041839Y0080400D01*
X0041692Y0080615D01*
X0041550Y0080833D01*
X0041414Y0081054D01*
X0041283Y0081279D01*
X0041158Y0081506D01*
X0041038Y0081737D01*
X0040924Y0081971D01*
X0040816Y0082207D01*
X0040713Y0082446D01*
X0040617Y0082688D01*
X0040526Y0082931D01*
X0040442Y0083177D01*
X0040363Y0083425D01*
X0040291Y0083675D01*
X0040224Y0083926D01*
X0040164Y0084179D01*
X0040111Y0084433D01*
X0040063Y0084689D01*
X0040022Y0084946D01*
X0039987Y0085203D01*
X0039958Y0085462D01*
X0039936Y0085721D01*
X0039920Y0085980D01*
X0039910Y0086240D01*
X0039907Y0086500D01*
X0039907Y0046500D02*
X0039910Y0046760D01*
X0039920Y0047020D01*
X0039936Y0047279D01*
X0039958Y0047538D01*
X0039987Y0047797D01*
X0040022Y0048054D01*
X0040063Y0048311D01*
X0040111Y0048567D01*
X0040164Y0048821D01*
X0040224Y0049074D01*
X0040291Y0049325D01*
X0040363Y0049575D01*
X0040442Y0049823D01*
X0040526Y0050069D01*
X0040617Y0050312D01*
X0040713Y0050554D01*
X0040816Y0050793D01*
X0040924Y0051029D01*
X0041038Y0051263D01*
X0041158Y0051494D01*
X0041283Y0051721D01*
X0041414Y0051946D01*
X0041550Y0052167D01*
X0041692Y0052385D01*
X0041839Y0052600D01*
X0041992Y0052810D01*
X0042149Y0053017D01*
X0042312Y0053220D01*
X0042479Y0053419D01*
X0042651Y0053614D01*
X0042828Y0053804D01*
X0043010Y0053990D01*
X0043196Y0054172D01*
X0043386Y0054349D01*
X0043581Y0054521D01*
X0043780Y0054688D01*
X0043983Y0054851D01*
X0044190Y0055008D01*
X0044400Y0055161D01*
X0044615Y0055308D01*
X0044833Y0055450D01*
X0045054Y0055586D01*
X0045279Y0055717D01*
X0045506Y0055842D01*
X0045737Y0055962D01*
X0045971Y0056076D01*
X0046207Y0056184D01*
X0046446Y0056287D01*
X0046688Y0056383D01*
X0046931Y0056474D01*
X0047177Y0056558D01*
X0047425Y0056637D01*
X0047675Y0056709D01*
X0047926Y0056776D01*
X0048179Y0056836D01*
X0048433Y0056889D01*
X0048689Y0056937D01*
X0048946Y0056978D01*
X0049203Y0057013D01*
X0049462Y0057042D01*
X0049721Y0057064D01*
X0049980Y0057080D01*
X0050240Y0057090D01*
X0050500Y0057093D01*
X0050760Y0057090D01*
X0051020Y0057080D01*
X0051279Y0057064D01*
X0051538Y0057042D01*
X0051797Y0057013D01*
X0052054Y0056978D01*
X0052311Y0056937D01*
X0052567Y0056889D01*
X0052821Y0056836D01*
X0053074Y0056776D01*
X0053325Y0056709D01*
X0053575Y0056637D01*
X0053823Y0056558D01*
X0054069Y0056474D01*
X0054312Y0056383D01*
X0054554Y0056287D01*
X0054793Y0056184D01*
X0055029Y0056076D01*
X0055263Y0055962D01*
X0055494Y0055842D01*
X0055721Y0055717D01*
X0055946Y0055586D01*
X0056167Y0055450D01*
X0056385Y0055308D01*
X0056600Y0055161D01*
X0056810Y0055008D01*
X0057017Y0054851D01*
X0057220Y0054688D01*
X0057419Y0054521D01*
X0057614Y0054349D01*
X0057804Y0054172D01*
X0057990Y0053990D01*
X0058172Y0053804D01*
X0058349Y0053614D01*
X0058521Y0053419D01*
X0058688Y0053220D01*
X0058851Y0053017D01*
X0059008Y0052810D01*
X0059161Y0052600D01*
X0059308Y0052385D01*
X0059450Y0052167D01*
X0059586Y0051946D01*
X0059717Y0051721D01*
X0059842Y0051494D01*
X0059962Y0051263D01*
X0060076Y0051029D01*
X0060184Y0050793D01*
X0060287Y0050554D01*
X0060383Y0050312D01*
X0060474Y0050069D01*
X0060558Y0049823D01*
X0060637Y0049575D01*
X0060709Y0049325D01*
X0060776Y0049074D01*
X0060836Y0048821D01*
X0060889Y0048567D01*
X0060937Y0048311D01*
X0060978Y0048054D01*
X0061013Y0047797D01*
X0061042Y0047538D01*
X0061064Y0047279D01*
X0061080Y0047020D01*
X0061090Y0046760D01*
X0061093Y0046500D01*
X0061090Y0046240D01*
X0061080Y0045980D01*
X0061064Y0045721D01*
X0061042Y0045462D01*
X0061013Y0045203D01*
X0060978Y0044946D01*
X0060937Y0044689D01*
X0060889Y0044433D01*
X0060836Y0044179D01*
X0060776Y0043926D01*
X0060709Y0043675D01*
X0060637Y0043425D01*
X0060558Y0043177D01*
X0060474Y0042931D01*
X0060383Y0042688D01*
X0060287Y0042446D01*
X0060184Y0042207D01*
X0060076Y0041971D01*
X0059962Y0041737D01*
X0059842Y0041506D01*
X0059717Y0041279D01*
X0059586Y0041054D01*
X0059450Y0040833D01*
X0059308Y0040615D01*
X0059161Y0040400D01*
X0059008Y0040190D01*
X0058851Y0039983D01*
X0058688Y0039780D01*
X0058521Y0039581D01*
X0058349Y0039386D01*
X0058172Y0039196D01*
X0057990Y0039010D01*
X0057804Y0038828D01*
X0057614Y0038651D01*
X0057419Y0038479D01*
X0057220Y0038312D01*
X0057017Y0038149D01*
X0056810Y0037992D01*
X0056600Y0037839D01*
X0056385Y0037692D01*
X0056167Y0037550D01*
X0055946Y0037414D01*
X0055721Y0037283D01*
X0055494Y0037158D01*
X0055263Y0037038D01*
X0055029Y0036924D01*
X0054793Y0036816D01*
X0054554Y0036713D01*
X0054312Y0036617D01*
X0054069Y0036526D01*
X0053823Y0036442D01*
X0053575Y0036363D01*
X0053325Y0036291D01*
X0053074Y0036224D01*
X0052821Y0036164D01*
X0052567Y0036111D01*
X0052311Y0036063D01*
X0052054Y0036022D01*
X0051797Y0035987D01*
X0051538Y0035958D01*
X0051279Y0035936D01*
X0051020Y0035920D01*
X0050760Y0035910D01*
X0050500Y0035907D01*
X0050240Y0035910D01*
X0049980Y0035920D01*
X0049721Y0035936D01*
X0049462Y0035958D01*
X0049203Y0035987D01*
X0048946Y0036022D01*
X0048689Y0036063D01*
X0048433Y0036111D01*
X0048179Y0036164D01*
X0047926Y0036224D01*
X0047675Y0036291D01*
X0047425Y0036363D01*
X0047177Y0036442D01*
X0046931Y0036526D01*
X0046688Y0036617D01*
X0046446Y0036713D01*
X0046207Y0036816D01*
X0045971Y0036924D01*
X0045737Y0037038D01*
X0045506Y0037158D01*
X0045279Y0037283D01*
X0045054Y0037414D01*
X0044833Y0037550D01*
X0044615Y0037692D01*
X0044400Y0037839D01*
X0044190Y0037992D01*
X0043983Y0038149D01*
X0043780Y0038312D01*
X0043581Y0038479D01*
X0043386Y0038651D01*
X0043196Y0038828D01*
X0043010Y0039010D01*
X0042828Y0039196D01*
X0042651Y0039386D01*
X0042479Y0039581D01*
X0042312Y0039780D01*
X0042149Y0039983D01*
X0041992Y0040190D01*
X0041839Y0040400D01*
X0041692Y0040615D01*
X0041550Y0040833D01*
X0041414Y0041054D01*
X0041283Y0041279D01*
X0041158Y0041506D01*
X0041038Y0041737D01*
X0040924Y0041971D01*
X0040816Y0042207D01*
X0040713Y0042446D01*
X0040617Y0042688D01*
X0040526Y0042931D01*
X0040442Y0043177D01*
X0040363Y0043425D01*
X0040291Y0043675D01*
X0040224Y0043926D01*
X0040164Y0044179D01*
X0040111Y0044433D01*
X0040063Y0044689D01*
X0040022Y0044946D01*
X0039987Y0045203D01*
X0039958Y0045462D01*
X0039936Y0045721D01*
X0039920Y0045980D01*
X0039910Y0046240D01*
X0039907Y0046500D01*
X0052972Y0020837D02*
X0052972Y0017167D01*
X0058497Y0016250D02*
X0058497Y0021755D01*
D11*
X0058000Y0021500D02*
X0060500Y0024000D01*
X0065500Y0024000D01*
X0068000Y0021500D01*
X0068000Y0006500D01*
X0065500Y0004000D01*
X0060500Y0004000D01*
X0058000Y0006500D01*
X0058000Y0021500D01*
X0055500Y0024000D01*
X0050500Y0024000D01*
X0048000Y0021500D01*
X0048000Y0006500D01*
X0050500Y0004000D01*
X0055500Y0004000D01*
X0058000Y0006500D01*
X0048000Y0006500D02*
X0045500Y0004000D01*
X0040500Y0004000D01*
X0038000Y0006500D01*
X0038000Y0021500D01*
X0040500Y0024000D01*
X0045500Y0024000D01*
X0048000Y0021500D01*
X0038000Y0021500D02*
X0035500Y0024000D01*
X0030500Y0024000D01*
X0028000Y0021500D01*
X0028000Y0006500D01*
X0030500Y0004000D01*
X0035500Y0004000D01*
X0038000Y0006500D01*
X0028000Y0006500D02*
X0025500Y0004000D01*
X0020500Y0004000D01*
X0018000Y0006500D01*
X0018000Y0021500D01*
X0020500Y0024000D01*
X0025500Y0024000D01*
X0028000Y0021500D01*
X0025500Y0184000D02*
X0020500Y0184000D01*
X0018000Y0186500D01*
X0018000Y0201500D01*
X0020500Y0204000D01*
X0025500Y0204000D01*
X0028000Y0201500D01*
X0028000Y0186500D01*
X0030500Y0184000D01*
X0035500Y0184000D01*
X0038000Y0186500D01*
X0038000Y0201500D01*
X0040500Y0204000D01*
X0045500Y0204000D01*
X0048000Y0201500D01*
X0048000Y0186500D01*
X0050500Y0184000D01*
X0055500Y0184000D01*
X0058000Y0186500D01*
X0060500Y0184000D01*
X0065500Y0184000D01*
X0068000Y0186500D01*
X0068000Y0201500D01*
X0065500Y0204000D01*
X0060500Y0204000D01*
X0058000Y0201500D01*
X0058000Y0186500D01*
X0058000Y0201500D02*
X0055500Y0204000D01*
X0050500Y0204000D01*
X0048000Y0201500D01*
X0048000Y0186500D02*
X0045500Y0184000D01*
X0040500Y0184000D01*
X0038000Y0186500D01*
X0038000Y0201500D02*
X0035500Y0204000D01*
X0030500Y0204000D01*
X0028000Y0201500D01*
X0028000Y0186500D02*
X0025500Y0184000D01*
D12*
X0025500Y0181500D02*
X0020500Y0181500D01*
X0018000Y0136500D02*
X0013000Y0136500D01*
X0010500Y0134000D01*
X0010500Y0129000D01*
X0013000Y0126500D01*
X0010500Y0124000D01*
X0010500Y0119000D01*
X0013000Y0116500D01*
X0010500Y0114000D01*
X0010500Y0109000D01*
X0013000Y0106500D01*
X0010500Y0104000D01*
X0010500Y0099000D01*
X0013000Y0096500D01*
X0010500Y0094000D01*
X0010500Y0089000D01*
X0013000Y0086500D01*
X0010500Y0084000D01*
X0010500Y0079000D01*
X0013000Y0076500D01*
X0010500Y0074000D01*
X0010500Y0069000D01*
X0013000Y0066500D01*
X0010500Y0064000D01*
X0010500Y0059000D01*
X0013000Y0056500D01*
X0018000Y0056500D01*
X0020500Y0059000D01*
X0020500Y0064000D01*
X0018000Y0066500D01*
X0020500Y0069000D01*
X0020500Y0074000D01*
X0018000Y0076500D01*
X0020500Y0079000D01*
X0020500Y0084000D01*
X0018000Y0086500D01*
X0020500Y0089000D01*
X0020500Y0094000D01*
X0018000Y0096500D01*
X0020500Y0099000D01*
X0020500Y0104000D01*
X0018000Y0106500D01*
X0020500Y0109000D01*
X0020500Y0114000D01*
X0018000Y0116500D01*
X0020500Y0119000D01*
X0020500Y0124000D01*
X0018000Y0126500D01*
X0020500Y0129000D01*
X0020500Y0134000D01*
X0018000Y0136500D01*
X0020500Y0001500D02*
X0025500Y0001500D01*
D13*
X0043000Y0009000D03*
X0043000Y0189000D03*
D14*
X0031750Y0152502D02*
X0031750Y0150033D01*
X0031750Y0151268D02*
X0028047Y0151268D01*
X0029281Y0150033D01*
X0028047Y0148819D02*
X0031133Y0148819D01*
X0031750Y0148202D01*
X0031750Y0146967D01*
X0031133Y0146350D01*
X0028047Y0146350D01*
X0028664Y0115002D02*
X0028047Y0114385D01*
X0028047Y0113150D01*
X0028664Y0112533D01*
X0028047Y0111319D02*
X0031133Y0111319D01*
X0031750Y0110702D01*
X0031750Y0109467D01*
X0031133Y0108850D01*
X0028047Y0108850D01*
X0031750Y0112533D02*
X0029281Y0115002D01*
X0028664Y0115002D01*
X0031750Y0115002D02*
X0031750Y0112533D01*
X0031133Y0075002D02*
X0030516Y0075002D01*
X0029898Y0074385D01*
X0029898Y0073768D01*
X0029898Y0074385D02*
X0029281Y0075002D01*
X0028664Y0075002D01*
X0028047Y0074385D01*
X0028047Y0073150D01*
X0028664Y0072533D01*
X0028047Y0071319D02*
X0031133Y0071319D01*
X0031750Y0070702D01*
X0031750Y0069467D01*
X0031133Y0068850D01*
X0028047Y0068850D01*
X0031133Y0072533D02*
X0031750Y0073150D01*
X0031750Y0074385D01*
X0031133Y0075002D01*
X0029898Y0035002D02*
X0029898Y0032533D01*
X0028047Y0034385D01*
X0031750Y0034385D01*
X0031133Y0031319D02*
X0028047Y0031319D01*
X0028047Y0028850D02*
X0031133Y0028850D01*
X0031750Y0029467D01*
X0031750Y0030702D01*
X0031133Y0031319D01*
M02*
